<svg width="176" height="74" viewBox="0 0 176 74" fill="none" xmlns="http://www.w3.org/2000/svg">
<rect width="176" height="74" fill="#D9D9D9"/>
<path d="M36.816 15.256C37.2213 15.32 37.5893 15.4853 37.92 15.752C38.2613 16.0187 38.528 16.3493 38.72 16.744C38.9227 17.1387 39.024 17.56 39.024 18.008C39.024 18.5733 38.88 19.0853 38.592 19.544C38.304 19.992 37.8827 20.3493 37.328 20.616C36.784 20.872 36.1387 21 35.392 21H31.232V9.848H35.232C35.9893 9.848 36.6347 9.976 37.168 10.232C37.7013 10.4773 38.1013 10.8133 38.368 11.24C38.6347 11.6667 38.768 12.1467 38.768 12.68C38.768 13.3413 38.5867 13.8907 38.224 14.328C37.872 14.7547 37.4027 15.064 36.816 15.256ZM32.688 14.664H35.136C35.8187 14.664 36.3467 14.504 36.72 14.184C37.0933 13.864 37.28 13.4213 37.28 12.856C37.28 12.2907 37.0933 11.848 36.72 11.528C36.3467 11.208 35.808 11.048 35.104 11.048H32.688V14.664ZM35.264 19.8C35.9893 19.8 36.5547 19.6293 36.96 19.288C37.3653 18.9467 37.568 18.472 37.568 17.864C37.568 17.2453 37.3547 16.76 36.928 16.408C36.5013 16.0453 35.9307 15.864 35.216 15.864H32.688V19.8H35.264ZM42.5005 13.656C42.7565 13.1547 43.1192 12.7653 43.5885 12.488C44.0685 12.2107 44.6498 12.072 45.3325 12.072V13.576H44.9485C43.3165 13.576 42.5005 14.4613 42.5005 16.232V21H41.0445V12.232H42.5005V13.656ZM46.4693 16.584C46.4693 15.688 46.6506 14.904 47.0133 14.232C47.3759 13.5493 47.8719 13.0213 48.5013 12.648C49.1413 12.2747 49.8506 12.088 50.6293 12.088C51.3973 12.088 52.0639 12.2533 52.6293 12.584C53.1946 12.9147 53.6159 13.3307 53.8933 13.832V12.232H55.3653V21H53.8933V19.368C53.6053 19.88 53.1733 20.3067 52.5973 20.648C52.0319 20.9787 51.3706 21.144 50.6133 21.144C49.8346 21.144 49.1306 20.952 48.5013 20.568C47.8719 20.184 47.3759 19.6453 47.0133 18.952C46.6506 18.2587 46.4693 17.4693 46.4693 16.584ZM53.8933 16.6C53.8933 15.9387 53.7599 15.3627 53.4933 14.872C53.2266 14.3813 52.8639 14.008 52.4053 13.752C51.9573 13.4853 51.4613 13.352 50.9173 13.352C50.3733 13.352 49.8773 13.48 49.4293 13.736C48.9813 13.992 48.6239 14.3653 48.3573 14.856C48.0906 15.3467 47.9573 15.9227 47.9573 16.584C47.9573 17.256 48.0906 17.8427 48.3573 18.344C48.6239 18.8347 48.9813 19.2133 49.4293 19.48C49.8773 19.736 50.3733 19.864 50.9173 19.864C51.4613 19.864 51.9573 19.736 52.4053 19.48C52.8639 19.2133 53.2266 18.8347 53.4933 18.344C53.7599 17.8427 53.8933 17.2613 53.8933 16.6ZM62.0978 12.072C63.1644 12.072 64.0284 12.3973 64.6898 13.048C65.3511 13.688 65.6818 14.616 65.6818 15.832V21H64.2418V16.04C64.2418 15.1653 64.0231 14.4987 63.5858 14.04C63.1484 13.5707 62.5511 13.336 61.7938 13.336C61.0258 13.336 60.4124 13.576 59.9538 14.056C59.5058 14.536 59.2818 15.2347 59.2818 16.152V21H57.8258V12.232H59.2818V13.48C59.5698 13.032 59.9591 12.6853 60.4498 12.44C60.9511 12.1947 61.5004 12.072 62.0978 12.072ZM67.5161 16.584C67.5161 15.688 67.6975 14.904 68.0601 14.232C68.4228 13.5493 68.9188 13.0213 69.5481 12.648C70.1881 12.2747 70.9028 12.088 71.6921 12.088C72.3748 12.088 73.0095 12.248 73.5961 12.568C74.1828 12.8773 74.6308 13.288 74.9401 13.8V9.16H76.4121V21H74.9401V19.352C74.6521 19.8747 74.2255 20.3067 73.6601 20.648C73.0948 20.9787 72.4335 21.144 71.6761 21.144C70.8975 21.144 70.1881 20.952 69.5481 20.568C68.9188 20.184 68.4228 19.6453 68.0601 18.952C67.6975 18.2587 67.5161 17.4693 67.5161 16.584ZM74.9401 16.6C74.9401 15.9387 74.8068 15.3627 74.5401 14.872C74.2735 14.3813 73.9108 14.008 73.4521 13.752C73.0041 13.4853 72.5081 13.352 71.9641 13.352C71.4201 13.352 70.9241 13.48 70.4761 13.736C70.0281 13.992 69.6708 14.3653 69.4041 14.856C69.1375 15.3467 69.0041 15.9227 69.0041 16.584C69.0041 17.256 69.1375 17.8427 69.4041 18.344C69.6708 18.8347 70.0281 19.2133 70.4761 19.48C70.9241 19.736 71.4201 19.864 71.9641 19.864C72.5081 19.864 73.0041 19.736 73.4521 19.48C73.9108 19.2133 74.2735 18.8347 74.5401 18.344C74.8068 17.8427 74.9401 17.2613 74.9401 16.6ZM79.3366 21.096C79.0593 21.096 78.8246 21 78.6326 20.808C78.4406 20.616 78.3446 20.3813 78.3446 20.104C78.3446 19.8267 78.4406 19.592 78.6326 19.4C78.8246 19.208 79.0593 19.112 79.3366 19.112C79.6033 19.112 79.8273 19.208 80.0086 19.4C80.2006 19.592 80.2966 19.8267 80.2966 20.104C80.2966 20.3813 80.2006 20.616 80.0086 20.808C79.8273 21 79.6033 21.096 79.3366 21.096ZM79.3366 14.248C79.0593 14.248 78.8246 14.152 78.6326 13.96C78.4406 13.768 78.3446 13.5333 78.3446 13.256C78.3446 12.9787 78.4406 12.744 78.6326 12.552C78.8246 12.36 79.0593 12.264 79.3366 12.264C79.6033 12.264 79.8273 12.36 80.0086 12.552C80.2006 12.744 80.2966 12.9787 80.2966 13.256C80.2966 13.5333 80.2006 13.768 80.0086 13.96C79.8273 14.152 79.6033 14.248 79.3366 14.248Z" fill="#666666"/>
<path d="M16.5 10.125C17.4665 10.125 18.25 9.3415 18.25 8.375C18.25 7.4085 17.4665 6.625 16.5 6.625C15.5335 6.625 14.75 7.4085 14.75 8.375C14.75 9.3415 15.5335 10.125 16.5 10.125Z" stroke="#666666" stroke-width="2" stroke-linecap="round" stroke-linejoin="round"/>
<path d="M21.5076 10.4837C20.6111 9.56471 19.4789 8.91022 18.2351 8.592M14.7605 8.592C13.4961 8.91627 12.3476 9.58794 11.4451 10.531M9.79925 13.3441C9.60033 14.0024 9.49949 14.6864 9.5 15.3741C9.5 16.0199 9.5875 16.6455 9.75113 17.2396M11.4661 20.2391C12.3642 21.1697 13.5028 21.833 14.7553 22.1554M18.2535 22.1527C19.5018 21.8296 20.6365 21.1676 21.5321 20.24M23.2489 17.2387C23.416 16.6313 23.5005 16.0041 23.5 15.3741C23.5 14.7056 23.4064 14.059 23.2314 13.4465" stroke="#666666" stroke-width="2" stroke-linecap="round" stroke-linejoin="round"/>
<path d="M10.375 20.625C11.3415 20.625 12.125 19.8415 12.125 18.875C12.125 17.9085 11.3415 17.125 10.375 17.125C9.4085 17.125 8.625 17.9085 8.625 18.875C8.625 19.8415 9.4085 20.625 10.375 20.625Z" stroke="#666666" stroke-width="2" stroke-linecap="round" stroke-linejoin="round"/>
<path d="M22.625 20.625C23.5915 20.625 24.375 19.8415 24.375 18.875C24.375 17.9085 23.5915 17.125 22.625 17.125C21.6585 17.125 20.875 17.9085 20.875 18.875C20.875 19.8415 21.6585 20.625 22.625 20.625Z" stroke="#666666" stroke-width="2" stroke-linecap="round" stroke-linejoin="round"/>
</svg>
