<svg width="66" height="56" viewBox="0 0 66 56" fill="none" xmlns="http://www.w3.org/2000/svg">
<rect width="66" height="56" rx="10" fill="#848DB8"/>
<ellipse cx="32.7234" cy="19.4603" rx="18.7234" ry="17.4603" fill="white" fill-opacity="0.75"/>
<path d="M32.2979 10.0192C29.5 10.0192 26.8167 11.0557 24.8382 12.9007C22.8598 14.7456 21.7483 17.248 21.7483 19.8572C21.7483 22.4663 22.8598 24.9687 24.8382 26.8136C26.8167 28.6586 29.5 29.6951 32.2979 29.6951C35.0959 29.6951 37.7792 28.6586 39.7577 26.8136C41.7361 24.9687 42.8476 22.4663 42.8476 19.8572C42.8476 17.248 41.7361 14.7456 39.7577 12.9007C37.7792 11.0557 35.0959 10.0192 32.2979 10.0192V10.0192ZM19.8866 19.8572C19.8866 13.4648 25.4432 8.28308 32.2979 8.28308C39.1527 8.28308 44.7093 13.4648 44.7093 19.8572C44.7093 26.2495 39.1527 31.4312 32.2979 31.4312C25.4432 31.4312 19.8866 26.2495 19.8866 19.8572ZM27.3334 16.9636C27.3334 16.5032 27.5295 16.0616 27.8787 15.736C28.2278 15.4104 28.7014 15.2275 29.1951 15.2275H35.4008C35.8945 15.2275 36.3681 15.4104 36.7172 15.736C37.0663 16.0616 37.2625 16.5032 37.2625 16.9636V22.7507C37.2625 23.2111 37.0663 23.6527 36.7172 23.9783C36.3681 24.3039 35.8945 24.4868 35.4008 24.4868H29.1951C28.7014 24.4868 28.2278 24.3039 27.8787 23.9783C27.5295 23.6527 27.3334 23.2111 27.3334 22.7507V16.9636Z" fill="black"/>
<path d="M20.065 49.135C19.435 49.135 18.87 49.03 18.37 48.82C17.87 48.6 17.475 48.3 17.185 47.92C16.895 47.53 16.735 47.085 16.705 46.585H18.115C18.155 46.995 18.345 47.33 18.685 47.59C19.035 47.85 19.49 47.98 20.05 47.98C20.57 47.98 20.98 47.865 21.28 47.635C21.58 47.405 21.73 47.115 21.73 46.765C21.73 46.405 21.57 46.14 21.25 45.97C20.93 45.79 20.435 45.615 19.765 45.445C19.155 45.285 18.655 45.125 18.265 44.965C17.885 44.795 17.555 44.55 17.275 44.23C17.005 43.9 16.87 43.47 16.87 42.94C16.87 42.52 16.995 42.135 17.245 41.785C17.495 41.435 17.85 41.16 18.31 40.96C18.77 40.75 19.295 40.645 19.885 40.645C20.795 40.645 21.53 40.875 22.09 41.335C22.65 41.795 22.95 42.425 22.99 43.225H21.625C21.595 42.795 21.42 42.45 21.1 42.19C20.79 41.93 20.37 41.8 19.84 41.8C19.35 41.8 18.96 41.905 18.67 42.115C18.38 42.325 18.235 42.6 18.235 42.94C18.235 43.21 18.32 43.435 18.49 43.615C18.67 43.785 18.89 43.925 19.15 44.035C19.42 44.135 19.79 44.25 20.26 44.38C20.85 44.54 21.33 44.7 21.7 44.86C22.07 45.01 22.385 45.24 22.645 45.55C22.915 45.86 23.055 46.265 23.065 46.765C23.065 47.215 22.94 47.62 22.69 47.98C22.44 48.34 22.085 48.625 21.625 48.835C21.175 49.035 20.655 49.135 20.065 49.135ZM26.6569 41.905V46.75C26.6569 47.15 26.7419 47.435 26.9119 47.605C27.0819 47.765 27.3769 47.845 27.7969 47.845H28.8019V49H27.5719C26.8119 49 26.2419 48.825 25.8619 48.475C25.4819 48.125 25.2919 47.55 25.2919 46.75V41.905H24.2269V40.78H25.2919V38.71H26.6569V40.78H28.8019V41.905H26.6569ZM34.0408 49.135C33.2708 49.135 32.5708 48.96 31.9408 48.61C31.3208 48.26 30.8308 47.765 30.4708 47.125C30.1208 46.475 29.9458 45.725 29.9458 44.875C29.9458 44.035 30.1258 43.295 30.4858 42.655C30.8558 42.005 31.3558 41.51 31.9858 41.17C32.6158 40.82 33.3208 40.645 34.1008 40.645C34.8808 40.645 35.5858 40.82 36.2158 41.17C36.8458 41.51 37.3408 42 37.7008 42.64C38.0708 43.28 38.2558 44.025 38.2558 44.875C38.2558 45.725 38.0658 46.475 37.6858 47.125C37.3158 47.765 36.8108 48.26 36.1708 48.61C35.5308 48.96 34.8208 49.135 34.0408 49.135ZM34.0408 47.935C34.5308 47.935 34.9908 47.82 35.4208 47.59C35.8508 47.36 36.1958 47.015 36.4558 46.555C36.7258 46.095 36.8608 45.535 36.8608 44.875C36.8608 44.215 36.7308 43.655 36.4708 43.195C36.2108 42.735 35.8708 42.395 35.4508 42.175C35.0308 41.945 34.5758 41.83 34.0858 41.83C33.5858 41.83 33.1258 41.945 32.7058 42.175C32.2958 42.395 31.9658 42.735 31.7158 43.195C31.4658 43.655 31.3408 44.215 31.3408 44.875C31.3408 45.545 31.4608 46.11 31.7008 46.57C31.9508 47.03 32.2808 47.375 32.6908 47.605C33.1008 47.825 33.5508 47.935 34.0408 47.935ZM41.4155 42.295C41.6855 41.825 42.0855 41.435 42.6155 41.125C43.1555 40.805 43.7805 40.645 44.4905 40.645C45.2205 40.645 45.8805 40.82 46.4705 41.17C47.0705 41.52 47.5405 42.015 47.8805 42.655C48.2205 43.285 48.3905 44.02 48.3905 44.86C48.3905 45.69 48.2205 46.43 47.8805 47.08C47.5405 47.73 47.0705 48.235 46.4705 48.595C45.8805 48.955 45.2205 49.135 44.4905 49.135C43.7905 49.135 43.1705 48.98 42.6305 48.67C42.1005 48.35 41.6955 47.955 41.4155 47.485V52.9H40.0505V40.78H41.4155V42.295ZM46.9955 44.86C46.9955 44.24 46.8705 43.7 46.6205 43.24C46.3705 42.78 46.0305 42.43 45.6005 42.19C45.1805 41.95 44.7155 41.83 44.2055 41.83C43.7055 41.83 43.2405 41.955 42.8105 42.205C42.3905 42.445 42.0505 42.8 41.7905 43.27C41.5405 43.73 41.4155 44.265 41.4155 44.875C41.4155 45.495 41.5405 46.04 41.7905 46.51C42.0505 46.97 42.3905 47.325 42.8105 47.575C43.2405 47.815 43.7055 47.935 44.2055 47.935C44.7155 47.935 45.1805 47.815 45.6005 47.575C46.0305 47.325 46.3705 46.97 46.6205 46.51C46.8705 46.04 46.9955 45.49 46.9955 44.86Z" fill="#654DFF"/>
</svg>
