<svg width="66" height="56" viewBox="0 0 66 56" fill="none" xmlns="http://www.w3.org/2000/svg">
<rect width="66" height="55.5289" rx="10" fill="#848DB8"/>
<ellipse cx="33.4177" cy="19.391" rx="18.3797" ry="19.391" fill="white" fill-opacity="0.75"/>
<path d="M33.4176 6.31677C30.8013 6.31677 28.2439 7.13526 26.0686 8.66873C23.8932 10.2022 22.1978 12.3818 21.1966 14.9318C20.1954 17.4819 19.9335 20.2879 20.4439 22.9951C20.9543 25.7022 22.2141 28.1889 24.0641 30.1406C25.914 32.0923 28.271 33.4215 30.8369 33.96C33.4029 34.4985 36.0626 34.2221 38.4796 33.1658C40.8967 32.1095 42.9626 30.3208 44.4161 28.0258C45.8696 25.7308 46.6454 23.0326 46.6454 20.2724C46.6454 18.4398 46.3033 16.625 45.6385 14.9318C44.9737 13.2387 43.9994 11.7002 42.7711 10.4043C41.5427 9.10839 40.0845 8.08042 38.4796 7.37909C36.8748 6.67775 35.1547 6.31677 33.4176 6.31677V6.31677ZM33.4176 31.437C31.3246 31.437 29.2786 30.7822 27.5384 29.5554C25.7981 28.3286 24.4417 26.585 23.6408 24.5449C22.8399 22.5049 22.6303 20.2601 23.0386 18.0944C23.4469 15.9286 24.4548 13.9393 25.9348 12.3779C27.4147 10.8165 29.3003 9.75322 31.3531 9.32243C33.4058 8.89165 35.5336 9.11274 37.4672 9.95776C39.4009 10.8028 41.0536 12.2338 42.2164 14.0698C43.3792 15.9058 43.9998 18.0643 43.9998 20.2724C43.9998 23.2335 42.8849 26.0732 40.9004 28.167C38.9158 30.2607 36.2241 31.437 33.4176 31.437V31.437Z" fill="black"/>
<path d="M33.4176 13.2946C32.1095 13.2946 30.8308 13.7039 29.7431 14.4706C28.6555 15.2373 27.8078 16.3271 27.3072 17.6022C26.8066 18.8772 26.6756 20.2802 26.9308 21.6338C27.186 22.9873 27.8159 24.2307 28.7409 25.2065C29.6659 26.1824 30.8444 26.847 32.1273 27.1162C33.4103 27.3855 34.7401 27.2473 35.9487 26.7191C37.1572 26.191 38.1902 25.2966 38.9169 24.1491C39.6437 23.0016 40.0316 21.6525 40.0316 20.2725C40.0316 18.4218 39.3347 16.647 38.0944 15.3384C36.854 14.0298 35.1718 13.2946 33.4176 13.2946V13.2946Z" fill="black"/>
<path d="M27.7435 51.744C26.9222 51.744 26.1755 51.5573 25.5035 51.184C24.8422 50.8107 24.3195 50.2827 23.9355 49.6C23.5622 48.9067 23.3755 48.1067 23.3755 47.2C23.3755 46.304 23.5675 45.5147 23.9515 44.832C24.3462 44.1387 24.8795 43.6107 25.5515 43.248C26.2235 42.8747 26.9755 42.688 27.8075 42.688C28.6395 42.688 29.3915 42.8747 30.0635 43.248C30.7355 43.6107 31.2635 44.1333 31.6475 44.816C32.0422 45.4987 32.2395 46.2933 32.2395 47.2C32.2395 48.1067 32.0368 48.9067 31.6315 49.6C31.2368 50.2827 30.6982 50.8107 30.0155 51.184C29.3328 51.5573 28.5755 51.744 27.7435 51.744ZM27.7435 50.464C28.2662 50.464 28.7568 50.3413 29.2155 50.096C29.6742 49.8507 30.0422 49.4827 30.3195 48.992C30.6075 48.5013 30.7515 47.904 30.7515 47.2C30.7515 46.496 30.6128 45.8987 30.3355 45.408C30.0582 44.9173 29.6955 44.5547 29.2475 44.32C28.7995 44.0747 28.3142 43.952 27.7915 43.952C27.2582 43.952 26.7675 44.0747 26.3195 44.32C25.8822 44.5547 25.5302 44.9173 25.2635 45.408C24.9968 45.8987 24.8635 46.496 24.8635 47.2C24.8635 47.9147 24.9915 48.5173 25.2475 49.008C25.5142 49.4987 25.8662 49.8667 26.3035 50.112C26.7408 50.3467 27.2208 50.464 27.7435 50.464ZM38.4259 42.672C39.4925 42.672 40.3565 42.9973 41.0179 43.648C41.6792 44.288 42.0099 45.216 42.0099 46.432V51.6H40.5699V46.64C40.5699 45.7653 40.3512 45.0987 39.9139 44.64C39.4765 44.1707 38.8792 43.936 38.1219 43.936C37.3539 43.936 36.7405 44.176 36.2819 44.656C35.8339 45.136 35.6099 45.8347 35.6099 46.752V51.6H34.1539V42.832H35.6099V44.08C35.8979 43.632 36.2872 43.2853 36.7779 43.04C37.2792 42.7947 37.8285 42.672 38.4259 42.672Z" fill="#654DFF"/>
</svg>
