<svg width="66" height="56" viewBox="0 0 66 56" fill="none" xmlns="http://www.w3.org/2000/svg">
<rect width="66" height="56" rx="10" fill="#848DB8"/>
<ellipse cx="33.5" cy="20.2769" rx="18.5" ry="18.2769" fill="white" fill-opacity="0.75"/>
<path d="M33.0795 30.7654C38.4889 30.7654 42.8901 26.4172 42.8901 21.0731C42.8901 17.0144 40.3492 13.5361 36.7585 12.0944V14.7876C37.8756 15.4248 38.8035 16.3409 39.4492 17.4441C40.0949 18.5473 40.4357 19.7988 40.4375 21.0731C40.4375 25.0821 37.1374 28.3423 33.0795 28.3423C29.0216 28.3423 25.7216 25.0821 25.7216 21.0731C25.7232 19.7987 26.064 18.5472 26.7097 17.444C27.3554 16.3408 28.2834 15.4247 29.4006 14.7876V12.0944C25.8099 13.5361 23.2689 17.0144 23.2689 21.0731C23.2689 26.4172 27.6702 30.7654 33.0795 30.7654Z" fill="black"/>
<path d="M31.8533 7.74615H34.3059V19.8615H31.8533V7.74615Z" fill="black"/>
<path d="M27.4673 51.1965C26.6973 51.1965 25.9973 51.0215 25.3673 50.6715C24.7473 50.3215 24.2573 49.8265 23.8973 49.1865C23.5473 48.5365 23.3723 47.7865 23.3723 46.9365C23.3723 46.0965 23.5523 45.3565 23.9123 44.7165C24.2823 44.0665 24.7823 43.5715 25.4123 43.2315C26.0423 42.8815 26.7473 42.7065 27.5273 42.7065C28.3073 42.7065 29.0123 42.8815 29.6423 43.2315C30.2723 43.5715 30.7673 44.0615 31.1273 44.7015C31.4973 45.3415 31.6823 46.0865 31.6823 46.9365C31.6823 47.7865 31.4923 48.5365 31.1123 49.1865C30.7423 49.8265 30.2373 50.3215 29.5973 50.6715C28.9573 51.0215 28.2473 51.1965 27.4673 51.1965ZM27.4673 49.9965C27.9573 49.9965 28.4173 49.8815 28.8473 49.6515C29.2773 49.4215 29.6223 49.0765 29.8823 48.6165C30.1523 48.1565 30.2873 47.5965 30.2873 46.9365C30.2873 46.2765 30.1573 45.7165 29.8973 45.2565C29.6373 44.7965 29.2973 44.4565 28.8773 44.2365C28.4573 44.0065 28.0023 43.8915 27.5123 43.8915C27.0123 43.8915 26.5523 44.0065 26.1323 44.2365C25.7223 44.4565 25.3923 44.7965 25.1423 45.2565C24.8923 45.7165 24.7673 46.2765 24.7673 46.9365C24.7673 47.6065 24.8873 48.1715 25.1273 48.6315C25.3773 49.0915 25.7073 49.4365 26.1173 49.6665C26.5273 49.8865 26.9773 49.9965 27.4673 49.9965ZM36.822 43.9665H35.097V51.0615H33.732V43.9665H32.667V42.8415H33.732V42.2565C33.732 41.3365 33.967 40.6665 34.437 40.2465C34.917 39.8165 35.682 39.6015 36.732 39.6015V40.7415C36.132 40.7415 35.707 40.8615 35.457 41.1015C35.217 41.3315 35.097 41.7165 35.097 42.2565V42.8415H36.822V43.9665ZM41.7585 43.9665H40.0335V51.0615H38.6685V43.9665H37.6035V42.8415H38.6685V42.2565C38.6685 41.3365 38.9035 40.6665 39.3735 40.2465C39.8535 39.8165 40.6185 39.6015 41.6685 39.6015V40.7415C41.0685 40.7415 40.6435 40.8615 40.3935 41.1015C40.1535 41.3315 40.0335 41.7165 40.0335 42.2565V42.8415H41.7585V43.9665Z" fill="#654DFF"/>
</svg>
