<svg width="49" height="49" viewBox="0 0 49 49" fill="none" xmlns="http://www.w3.org/2000/svg">
<path d="M0 0H33.2609C41.5451 0 48.2609 6.71573 48.2609 15V33.1846C48.2609 41.4689 41.5451 48.1846 33.2609 48.1846H0V0Z" fill="#999999"/>
<path d="M10.016 32.636C10.232 32.26 10.552 31.948 10.976 31.7C11.408 31.444 11.908 31.316 12.476 31.316C13.06 31.316 13.588 31.456 14.06 31.736C14.54 32.016 14.916 32.412 15.188 32.924C15.46 33.428 15.596 34.016 15.596 34.688C15.596 35.352 15.46 35.944 15.188 36.464C14.916 36.984 14.54 37.388 14.06 37.676C13.588 37.964 13.06 38.108 12.476 38.108C11.916 38.108 11.42 37.984 10.988 37.736C10.564 37.48 10.24 37.164 10.016 36.788V41.12H8.924V31.424H10.016V32.636ZM14.48 34.688C14.48 34.192 14.38 33.76 14.18 33.392C13.98 33.024 13.708 32.744 13.364 32.552C13.028 32.36 12.656 32.264 12.248 32.264C11.848 32.264 11.476 32.364 11.132 32.564C10.796 32.756 10.524 33.04 10.316 33.416C10.116 33.784 10.016 34.212 10.016 34.7C10.016 35.196 10.116 35.632 10.316 36.008C10.524 36.376 10.796 36.66 11.132 36.86C11.476 37.052 11.848 37.148 12.248 37.148C12.656 37.148 13.028 37.052 13.364 36.86C13.708 36.66 13.98 36.376 14.18 36.008C14.38 35.632 14.48 35.192 14.48 34.688ZM18.1254 32.492C18.3174 32.116 18.5894 31.824 18.9414 31.616C19.3014 31.408 19.7374 31.304 20.2494 31.304V32.432H19.9614C18.7374 32.432 18.1254 33.096 18.1254 34.424V38H17.0334V31.424H18.1254V32.492ZM27.5099 34.46C27.5099 34.668 27.4979 34.888 27.4739 35.12H22.2179C22.2579 35.768 22.4779 36.276 22.8779 36.644C23.2859 37.004 23.7779 37.184 24.3539 37.184C24.8259 37.184 25.2179 37.076 25.5299 36.86C25.8499 36.636 26.0739 36.34 26.2019 35.972H27.3779C27.2019 36.604 26.8499 37.12 26.3219 37.52C25.7939 37.912 25.1379 38.108 24.3539 38.108C23.7299 38.108 23.1699 37.968 22.6739 37.688C22.1859 37.408 21.8019 37.012 21.5219 36.5C21.2419 35.98 21.1019 35.38 21.1019 34.7C21.1019 34.02 21.2379 33.424 21.5099 32.912C21.7819 32.4 22.1619 32.008 22.6499 31.736C23.1459 31.456 23.7139 31.316 24.3539 31.316C24.9779 31.316 25.5299 31.452 26.0099 31.724C26.4899 31.996 26.8579 32.372 27.1139 32.852C27.3779 33.324 27.5099 33.86 27.5099 34.46ZM26.3819 34.232C26.3819 33.816 26.2899 33.46 26.1059 33.164C25.9219 32.86 25.6699 32.632 25.3499 32.48C25.0379 32.32 24.6899 32.24 24.3059 32.24C23.7539 32.24 23.2819 32.416 22.8899 32.768C22.5059 33.12 22.2859 33.608 22.2299 34.232H26.3819ZM31.3993 36.992L33.4393 31.424H34.6033L32.0233 38H30.7513L28.1713 31.424H29.3473L31.3993 36.992Z" fill="black"/>
<path d="M21.5 10.25L22.4384 11.1642L18.7766 14.8438H26.75V16.1562H18.7766L22.4384 19.8135L21.5 20.75L16.25 15.5L21.5 10.25Z" fill="black"/>
<path d="M21.5 24.6875C23.3171 24.6875 25.0934 24.1487 26.6043 23.1391C28.1152 22.1296 29.2928 20.6947 29.9881 19.0159C30.6835 17.3371 30.8655 15.4898 30.511 13.7076C30.1565 11.9254 29.2814 10.2883 27.9965 9.00345C26.7116 7.71856 25.0746 6.84353 23.2924 6.48903C21.5102 6.13453 19.6629 6.31647 17.9841 7.01185C16.3053 7.70723 14.8704 8.88482 13.8609 10.3957C12.8513 11.9066 12.3125 13.6829 12.3125 15.5C12.3153 17.9358 13.2841 20.2711 15.0065 21.9935C16.7289 23.7159 19.0642 24.6847 21.5 24.6875ZM21.5 7.625C23.0575 7.625 24.5801 8.08686 25.8751 8.95217C27.1701 9.81749 28.1795 11.0474 28.7755 12.4864C29.3716 13.9253 29.5275 15.5087 29.2237 17.0363C28.9198 18.5639 28.1698 19.9671 27.0685 21.0685C25.9671 22.1698 24.5639 22.9198 23.0363 23.2237C21.5087 23.5275 19.9253 23.3716 18.4864 22.7755C17.0474 22.1795 15.8175 21.1701 14.9522 19.8751C14.0869 18.5801 13.625 17.0575 13.625 15.5C13.6274 13.4122 14.4579 11.4105 15.9342 9.93422C17.4105 8.45789 19.4122 7.62743 21.5 7.625Z" fill="black"/>
</svg>
