<svg width="72" height="56" viewBox="0 0 72 56" fill="none" xmlns="http://www.w3.org/2000/svg">
<rect width="66" height="56" rx="10" fill="#848DB8"/>
<ellipse opacity="0.75" cx="34.8571" cy="20.1587" rx="18.8571" ry="18.1587" fill="white"/>
<g clip-path="url(#clip0_50_127)">
<path d="M34.8572 33.2619C38.2387 33.2619 41.4817 31.9684 43.8728 29.6658C46.2639 27.3633 47.6072 24.2404 47.6072 20.9841C47.6072 17.7279 46.2639 14.605 43.8728 12.3024C41.4817 9.99991 38.2387 8.70636 34.8572 8.70636C31.4757 8.70636 28.2326 9.99991 25.8415 12.3024C23.4505 14.605 22.1072 17.7279 22.1072 20.9841C22.1072 24.2404 23.4505 27.3633 25.8415 29.6658C28.2326 31.9684 31.4757 33.2619 34.8572 33.2619ZM34.8572 35.0159C30.9926 35.0159 27.2863 33.5375 24.5536 30.9061C21.8209 28.2746 20.2857 24.7056 20.2857 20.9841C20.2857 17.2627 21.8209 13.6937 24.5536 11.0622C27.2863 8.43073 30.9926 6.95239 34.8572 6.95239C38.7217 6.95239 42.428 8.43073 45.1607 11.0622C47.8934 13.6937 49.4286 17.2627 49.4286 20.9841C49.4286 24.7056 47.8934 28.2746 45.1607 30.9061C42.428 33.5375 38.7217 35.0159 34.8572 35.0159V35.0159Z" fill="black"/>
<path d="M41.6492 15.8187C41.5003 15.7448 41.333 15.712 41.1659 15.7237C40.9988 15.7355 40.8383 15.7914 40.7021 15.8854L34.8571 19.9072V16.5992C34.857 16.4382 34.8109 16.2804 34.7238 16.143C34.6368 16.0056 34.5121 15.8939 34.3635 15.8202C34.2149 15.7464 34.0481 15.7135 33.8813 15.725C33.7146 15.7365 33.5544 15.792 33.4182 15.8854L27.0432 20.2703C26.9251 20.3514 26.8289 20.4585 26.7625 20.5827C26.6961 20.7068 26.6615 20.8445 26.6615 20.9841C26.6615 21.1238 26.6961 21.2614 26.7625 21.3856C26.8289 21.5098 26.9251 21.6169 27.0432 21.698L33.4182 26.0829C33.5544 26.1763 33.7146 26.2318 33.8813 26.2433C34.0481 26.2548 34.2149 26.2219 34.3635 26.1481C34.5121 26.0744 34.6368 25.9627 34.7238 25.8253C34.8109 25.6879 34.857 25.53 34.8571 25.3691V22.0611L40.7039 26.0829C40.8401 26.1763 41.0003 26.2318 41.167 26.2433C41.3338 26.2548 41.5006 26.2219 41.6492 26.1481C41.7978 26.0744 41.9225 25.9627 42.0095 25.8253C42.0966 25.6879 42.1427 25.53 42.1428 25.3691V16.5992C42.143 16.438 42.097 16.2799 42.0099 16.1422C41.9229 16.0045 41.798 15.8925 41.6492 15.8187V15.8187Z" fill="black"/>
</g>
<path d="M8.52 43.115C8.76 42.645 9.1 42.28 9.54 42.02C9.99 41.76 10.535 41.63 11.175 41.63V43.04H10.815C9.285 43.04 8.52 43.87 8.52 45.53V50H7.155V41.78H8.52V43.115ZM20.2507 45.575C20.2507 45.835 20.2357 46.11 20.2057 46.4H13.6357C13.6857 47.21 13.9607 47.845 14.4607 48.305C14.9707 48.755 15.5857 48.98 16.3057 48.98C16.8957 48.98 17.3857 48.845 17.7757 48.575C18.1757 48.295 18.4557 47.925 18.6157 47.465H20.0857C19.8657 48.255 19.4257 48.9 18.7657 49.4C18.1057 49.89 17.2857 50.135 16.3057 50.135C15.5257 50.135 14.8257 49.96 14.2057 49.61C13.5957 49.26 13.1157 48.765 12.7657 48.125C12.4157 47.475 12.2407 46.725 12.2407 45.875C12.2407 45.025 12.4107 44.28 12.7507 43.64C13.0907 43 13.5657 42.51 14.1757 42.17C14.7957 41.82 15.5057 41.645 16.3057 41.645C17.0857 41.645 17.7757 41.815 18.3757 42.155C18.9757 42.495 19.4357 42.965 19.7557 43.565C20.0857 44.155 20.2507 44.825 20.2507 45.575ZM18.8407 45.29C18.8407 44.77 18.7257 44.325 18.4957 43.955C18.2657 43.575 17.9507 43.29 17.5507 43.1C17.1607 42.9 16.7257 42.8 16.2457 42.8C15.5557 42.8 14.9657 43.02 14.4757 43.46C13.9957 43.9 13.7207 44.51 13.6507 45.29H18.8407ZM25.1125 48.74L27.6625 41.78H29.1175L25.8925 50H24.3025L21.0775 41.78H22.5475L25.1125 48.74ZM37.9607 45.575C37.9607 45.835 37.9457 46.11 37.9157 46.4H31.3457C31.3957 47.21 31.6707 47.845 32.1707 48.305C32.6807 48.755 33.2957 48.98 34.0157 48.98C34.6057 48.98 35.0957 48.845 35.4857 48.575C35.8857 48.295 36.1657 47.925 36.3257 47.465H37.7957C37.5757 48.255 37.1357 48.9 36.4757 49.4C35.8157 49.89 34.9957 50.135 34.0157 50.135C33.2357 50.135 32.5357 49.96 31.9157 49.61C31.3057 49.26 30.8257 48.765 30.4757 48.125C30.1257 47.475 29.9507 46.725 29.9507 45.875C29.9507 45.025 30.1207 44.28 30.4607 43.64C30.8007 43 31.2757 42.51 31.8857 42.17C32.5057 41.82 33.2157 41.645 34.0157 41.645C34.7957 41.645 35.4857 41.815 36.0857 42.155C36.6857 42.495 37.1457 42.965 37.4657 43.565C37.7957 44.155 37.9607 44.825 37.9607 45.575ZM36.5507 45.29C36.5507 44.77 36.4357 44.325 36.2057 43.955C35.9757 43.575 35.6607 43.29 35.2607 43.1C34.8707 42.9 34.4357 42.8 33.9557 42.8C33.2657 42.8 32.6757 43.02 32.1857 43.46C31.7057 43.9 31.4307 44.51 31.3607 45.29H36.5507ZM41.1274 43.115C41.3674 42.645 41.7074 42.28 42.1474 42.02C42.5974 41.76 43.1424 41.63 43.7824 41.63V43.04H43.4224C41.8924 43.04 41.1274 43.87 41.1274 45.53V50H39.7624V41.78H41.1274V43.115ZM48.2681 50.135C47.6381 50.135 47.0731 50.03 46.5731 49.82C46.0731 49.6 45.6781 49.3 45.3881 48.92C45.0981 48.53 44.9381 48.085 44.9081 47.585H46.3181C46.3581 47.995 46.5481 48.33 46.8881 48.59C47.2381 48.85 47.6931 48.98 48.2531 48.98C48.7731 48.98 49.1831 48.865 49.4831 48.635C49.7831 48.405 49.9331 48.115 49.9331 47.765C49.9331 47.405 49.7731 47.14 49.4531 46.97C49.1331 46.79 48.6381 46.615 47.9681 46.445C47.3581 46.285 46.8581 46.125 46.4681 45.965C46.0881 45.795 45.7581 45.55 45.4781 45.23C45.2081 44.9 45.0731 44.47 45.0731 43.94C45.0731 43.52 45.1981 43.135 45.4481 42.785C45.6981 42.435 46.0531 42.16 46.5131 41.96C46.9731 41.75 47.4981 41.645 48.0881 41.645C48.9981 41.645 49.7331 41.875 50.2931 42.335C50.8531 42.795 51.1531 43.425 51.1931 44.225H49.8281C49.7981 43.795 49.6231 43.45 49.3031 43.19C48.9931 42.93 48.5731 42.8 48.0431 42.8C47.5531 42.8 47.1631 42.905 46.8731 43.115C46.5831 43.325 46.4381 43.6 46.4381 43.94C46.4381 44.21 46.5231 44.435 46.6931 44.615C46.8731 44.785 47.0931 44.925 47.3531 45.035C47.6231 45.135 47.9931 45.25 48.4631 45.38C49.0531 45.54 49.5331 45.7 49.9031 45.86C50.2731 46.01 50.5881 46.24 50.8481 46.55C51.1181 46.86 51.2581 47.265 51.2681 47.765C51.2681 48.215 51.1431 48.62 50.8931 48.98C50.6431 49.34 50.2881 49.625 49.8281 49.835C49.3781 50.035 48.8581 50.135 48.2681 50.135ZM60.695 45.575C60.695 45.835 60.68 46.11 60.65 46.4H54.08C54.13 47.21 54.405 47.845 54.905 48.305C55.415 48.755 56.03 48.98 56.75 48.98C57.34 48.98 57.83 48.845 58.22 48.575C58.62 48.295 58.9 47.925 59.06 47.465H60.53C60.31 48.255 59.87 48.9 59.21 49.4C58.55 49.89 57.73 50.135 56.75 50.135C55.97 50.135 55.27 49.96 54.65 49.61C54.04 49.26 53.56 48.765 53.21 48.125C52.86 47.475 52.685 46.725 52.685 45.875C52.685 45.025 52.855 44.28 53.195 43.64C53.535 43 54.01 42.51 54.62 42.17C55.24 41.82 55.95 41.645 56.75 41.645C57.53 41.645 58.22 41.815 58.82 42.155C59.42 42.495 59.88 42.965 60.2 43.565C60.53 44.155 60.695 44.825 60.695 45.575ZM59.285 45.29C59.285 44.77 59.17 44.325 58.94 43.955C58.71 43.575 58.395 43.29 57.995 43.1C57.605 42.9 57.17 42.8 56.69 42.8C56 42.8 55.41 43.02 54.92 43.46C54.44 43.9 54.165 44.51 54.095 45.29H59.285Z" fill="#654DFF"/>
<defs>
<clipPath id="clip0_50_127">
<rect width="29.1429" height="28.0635" fill="white" transform="matrix(-1 0 0 1 49.4286 6.95239)"/>
</clipPath>
</defs>
</svg>
