<svg width="68" height="68" viewBox="0 0 68 68" fill="none" xmlns="http://www.w3.org/2000/svg">
<path d="M0 15C0 6.71573 6.71573 0 15 0H53C61.2843 0 68 6.71573 68 15V53C68 61.2843 61.2843 68 53 68H15C6.71573 68 0 61.2843 0 53V15Z" fill="#C9DDF4" fill-opacity="0.8"/>
<path d="M22.184 53.38V63H21.001V53.38H22.184ZM24.8112 54.719C24.5859 54.719 24.3952 54.641 24.2392 54.485C24.0832 54.329 24.0052 54.1383 24.0052 53.913C24.0052 53.6877 24.0832 53.497 24.2392 53.341C24.3952 53.185 24.5859 53.107 24.8112 53.107C25.0279 53.107 25.2099 53.185 25.3572 53.341C25.5132 53.497 25.5912 53.6877 25.5912 53.913C25.5912 54.1383 25.5132 54.329 25.3572 54.485C25.2099 54.641 25.0279 54.719 24.8112 54.719ZM25.3832 55.876V63H24.2002V55.876H25.3832ZM30.3374 55.759C30.9528 55.759 31.4901 55.8933 31.9494 56.162C32.4174 56.4307 32.7641 56.7687 32.9894 57.176V55.876H34.1854V63.156C34.1854 63.806 34.0468 64.3823 33.7694 64.885C33.4921 65.3963 33.0934 65.795 32.5734 66.081C32.0621 66.367 31.4641 66.51 30.7794 66.51C29.8434 66.51 29.0634 66.289 28.4394 65.847C27.8154 65.405 27.4471 64.8027 27.3344 64.04H28.5044C28.6344 64.4733 28.9031 64.82 29.3104 65.08C29.7178 65.3487 30.2074 65.483 30.7794 65.483C31.4294 65.483 31.9581 65.2793 32.3654 64.872C32.7814 64.4647 32.9894 63.8927 32.9894 63.156V61.661C32.7554 62.077 32.4088 62.4237 31.9494 62.701C31.4901 62.9783 30.9528 63.117 30.3374 63.117C29.7048 63.117 29.1284 62.961 28.6084 62.649C28.0971 62.337 27.6941 61.8993 27.3994 61.336C27.1048 60.7727 26.9574 60.1313 26.9574 59.412C26.9574 58.684 27.1048 58.047 27.3994 57.501C27.6941 56.9463 28.0971 56.5173 28.6084 56.214C29.1284 55.9107 29.7048 55.759 30.3374 55.759ZM32.9894 59.425C32.9894 58.8877 32.8811 58.4197 32.6644 58.021C32.4478 57.6223 32.1531 57.319 31.7804 57.111C31.4164 56.8943 31.0134 56.786 30.5714 56.786C30.1294 56.786 29.7264 56.89 29.3624 57.098C28.9984 57.306 28.7081 57.6093 28.4914 58.008C28.2748 58.4067 28.1664 58.8747 28.1664 59.412C28.1664 59.958 28.2748 60.4347 28.4914 60.842C28.7081 61.2407 28.9984 61.5483 29.3624 61.765C29.7264 61.973 30.1294 62.077 30.5714 62.077C31.0134 62.077 31.4164 61.973 31.7804 61.765C32.1531 61.5483 32.4478 61.2407 32.6644 60.842C32.8811 60.4347 32.9894 59.9623 32.9894 59.425ZM39.7206 55.746C40.2579 55.746 40.7433 55.863 41.1766 56.097C41.6099 56.3223 41.9479 56.6647 42.1906 57.124C42.4419 57.5833 42.5676 58.1423 42.5676 58.801V63H41.3976V58.97C41.3976 58.2593 41.2199 57.7177 40.8646 57.345C40.5093 56.9637 40.0239 56.773 39.4086 56.773C38.7846 56.773 38.2863 56.968 37.9136 57.358C37.5496 57.748 37.3676 58.3157 37.3676 59.061V63H36.1846V53.38H37.3676V56.89C37.6016 56.526 37.9223 56.2443 38.3296 56.045C38.7456 55.8457 39.2093 55.746 39.7206 55.746ZM45.943 56.851V61.05C45.943 61.3967 46.0167 61.6437 46.164 61.791C46.3114 61.9297 46.567 61.999 46.931 61.999H47.802V63H46.736C46.0774 63 45.5834 62.8483 45.254 62.545C44.9247 62.2417 44.76 61.7433 44.76 61.05V56.851H43.837V55.876H44.76V54.082H45.943V55.876H47.802V56.851H45.943Z" fill="black"/>
<path d="M33.8438 3.3125H37.1562V11.5938H33.8438V3.3125ZM44.9207 14.7406L50.7276 8.93381L53.0695 11.2758L47.2627 17.0826L44.9207 14.7406ZM50.4062 24.8438H58.6875V28.1562H50.4062V24.8438ZM44.9207 38.2594L47.2627 35.9191L53.0695 41.7259L50.7276 44.0678L44.9207 38.2594ZM33.8438 41.4062H37.1562V49.6875H33.8438V41.4062ZM17.9338 41.7242L23.7406 35.9174L26.0826 38.2594L20.2774 44.0662L17.9338 41.7242ZM12.3125 24.8438H20.5938V28.1562H12.3125V24.8438ZM17.9355 11.2758L20.2774 8.93381L26.0842 14.7406L23.7406 17.0826L17.9355 11.2758ZM35.5 16.5625C33.5345 16.5625 31.6132 17.1453 29.979 18.2373C28.3448 19.3292 27.0711 20.8812 26.3189 22.6971C25.5668 24.5129 25.37 26.511 25.7534 28.4387C26.1369 30.3664 27.0833 32.1371 28.4731 33.5269C29.8629 34.9167 31.6336 35.8631 33.5613 36.2466C35.489 36.63 37.4871 36.4332 39.3029 35.6811C41.1188 34.9289 42.6708 33.6552 43.7627 32.021C44.8547 30.3868 45.4375 28.4655 45.4375 26.5C45.4375 23.8644 44.3905 21.3368 42.5269 19.4731C40.6632 17.6095 38.1356 16.5625 35.5 16.5625Z" fill="black"/>
</svg>
