<svg width="70" height="56" viewBox="0 0 70 56" fill="none" xmlns="http://www.w3.org/2000/svg">
<rect width="66" height="56" rx="10" fill="#848DB8"/>
<ellipse cx="31.4586" cy="18.3139" rx="18.0975" ry="18.3139" fill="white" fill-opacity="0.75"/>
<g clip-path="url(#clip0_50_103)">
<path d="M31.4586 31.5291C28.2133 31.5291 25.1009 30.2245 22.8061 27.9023C20.5114 25.5801 19.2222 22.4305 19.2222 19.1464C19.2222 15.8623 20.5114 12.7127 22.8061 10.3905C25.1009 8.06828 28.2133 6.76368 31.4586 6.76368C34.7039 6.76368 37.8162 8.06828 40.111 10.3905C42.4058 12.7127 43.6949 15.8623 43.6949 19.1464C43.6949 22.4305 42.4058 25.5801 40.111 27.9023C37.8162 30.2245 34.7039 31.5291 31.4586 31.5291ZM31.4586 33.2981C35.1675 33.2981 38.7245 31.8071 41.3471 29.1531C43.9696 26.4992 45.443 22.8997 45.443 19.1464C45.443 15.3931 43.9696 11.7936 41.3471 9.13965C38.7245 6.4857 35.1675 4.99472 31.4586 4.99472C27.7497 4.99472 24.1927 6.4857 21.5701 9.13965C18.9475 11.7936 17.4741 15.3931 17.4741 19.1464C17.4741 22.8997 18.9475 26.4992 21.5701 29.1531C24.1927 31.8071 27.7497 33.2981 31.4586 33.2981V33.2981Z" fill="black"/>
<path d="M24.94 13.9368C25.083 13.8623 25.2435 13.8292 25.4039 13.841C25.5642 13.8529 25.7183 13.9093 25.849 14.004L31.4585 18.0603V14.724C31.4586 14.5617 31.5029 14.4025 31.5864 14.2639C31.67 14.1253 31.7896 14.0126 31.9323 13.9383C32.0749 13.8639 32.235 13.8307 32.395 13.8423C32.555 13.8539 32.7088 13.9099 32.8395 14.004L38.9577 18.4264C39.071 18.5083 39.1633 18.6163 39.2271 18.7415C39.2908 18.8667 39.324 19.0055 39.324 19.1464C39.324 19.2873 39.2908 19.4261 39.2271 19.5513C39.1633 19.6765 39.071 19.7845 38.9577 19.8664L32.8395 24.2888C32.7088 24.3829 32.555 24.4389 32.395 24.4505C32.235 24.4621 32.0749 24.4289 31.9323 24.3545C31.7896 24.2802 31.67 24.1675 31.5864 24.0289C31.5029 23.8903 31.4586 23.7312 31.4585 23.5688V20.2325L25.8473 24.2888C25.7166 24.3829 25.5628 24.4389 25.4028 24.4505C25.2428 24.4621 25.0827 24.4289 24.94 24.3545C24.7974 24.2802 24.6778 24.1675 24.5942 24.0289C24.5107 23.8903 24.4664 23.7312 24.4663 23.5688V14.724C24.4661 14.5614 24.5103 14.4019 24.5938 14.263C24.6774 14.1242 24.7972 14.0113 24.94 13.9368V13.9368Z" fill="black"/>
</g>
<path d="M8.5 41.905H6.775V49H5.41V41.905H4.345V40.78H5.41V40.195C5.41 39.275 5.645 38.605 6.115 38.185C6.595 37.755 7.36 37.54 8.41 37.54V38.68C7.81 38.68 7.385 38.8 7.135 39.04C6.895 39.27 6.775 39.655 6.775 40.195V40.78H8.5V41.905ZM13.6765 49.135C12.9065 49.135 12.2065 48.96 11.5765 48.61C10.9565 48.26 10.4665 47.765 10.1065 47.125C9.75652 46.475 9.58152 45.725 9.58152 44.875C9.58152 44.035 9.76152 43.295 10.1215 42.655C10.4915 42.005 10.9915 41.51 11.6215 41.17C12.2515 40.82 12.9565 40.645 13.7365 40.645C14.5165 40.645 15.2215 40.82 15.8515 41.17C16.4815 41.51 16.9765 42 17.3365 42.64C17.7065 43.28 17.8915 44.025 17.8915 44.875C17.8915 45.725 17.7015 46.475 17.3215 47.125C16.9515 47.765 16.4465 48.26 15.8065 48.61C15.1665 48.96 14.4565 49.135 13.6765 49.135ZM13.6765 47.935C14.1665 47.935 14.6265 47.82 15.0565 47.59C15.4865 47.36 15.8315 47.015 16.0915 46.555C16.3615 46.095 16.4965 45.535 16.4965 44.875C16.4965 44.215 16.3665 43.655 16.1065 43.195C15.8465 42.735 15.5065 42.395 15.0865 42.175C14.6665 41.945 14.2115 41.83 13.7215 41.83C13.2215 41.83 12.7615 41.945 12.3415 42.175C11.9315 42.395 11.6015 42.735 11.3515 43.195C11.1015 43.655 10.9765 44.215 10.9765 44.875C10.9765 45.545 11.0965 46.11 11.3365 46.57C11.5865 47.03 11.9165 47.375 12.3265 47.605C12.7365 47.825 13.1865 47.935 13.6765 47.935ZM21.0513 42.115C21.2913 41.645 21.6313 41.28 22.0713 41.02C22.5213 40.76 23.0663 40.63 23.7063 40.63V42.04H23.3463C21.8163 42.04 21.0513 42.87 21.0513 44.53V49H19.6863V40.78H21.0513V42.115ZM36.232 40.78L33.667 49H32.257L30.277 42.475L28.297 49H26.887L24.307 40.78H25.702L27.592 47.68L29.632 40.78H31.027L33.022 47.695L34.882 40.78H36.232ZM37.0766 44.86C37.0766 44.02 37.2466 43.285 37.5866 42.655C37.9266 42.015 38.3916 41.52 38.9816 41.17C39.5816 40.82 40.2466 40.645 40.9766 40.645C41.6966 40.645 42.3216 40.8 42.8516 41.11C43.3816 41.42 43.7766 41.81 44.0366 42.28V40.78H45.4166V49H44.0366V47.47C43.7666 47.95 43.3616 48.35 42.8216 48.67C42.2916 48.98 41.6716 49.135 40.9616 49.135C40.2316 49.135 39.5716 48.955 38.9816 48.595C38.3916 48.235 37.9266 47.73 37.5866 47.08C37.2466 46.43 37.0766 45.69 37.0766 44.86ZM44.0366 44.875C44.0366 44.255 43.9116 43.715 43.6616 43.255C43.4116 42.795 43.0716 42.445 42.6416 42.205C42.2216 41.955 41.7566 41.83 41.2466 41.83C40.7366 41.83 40.2716 41.95 39.8516 42.19C39.4316 42.43 39.0966 42.78 38.8466 43.24C38.5966 43.7 38.4716 44.24 38.4716 44.86C38.4716 45.49 38.5966 46.04 38.8466 46.51C39.0966 46.97 39.4316 47.325 39.8516 47.575C40.2716 47.815 40.7366 47.935 41.2466 47.935C41.7566 47.935 42.2216 47.815 42.6416 47.575C43.0716 47.325 43.4116 46.97 43.6616 46.51C43.9116 46.04 44.0366 45.495 44.0366 44.875ZM49.0884 42.115C49.3284 41.645 49.6684 41.28 50.1084 41.02C50.5584 40.76 51.1034 40.63 51.7434 40.63V42.04H51.3834C49.8534 42.04 49.0884 42.87 49.0884 44.53V49H47.7234V40.78H49.0884V42.115ZM52.8091 44.86C52.8091 44.02 52.9791 43.285 53.3191 42.655C53.6591 42.015 54.1241 41.52 54.7141 41.17C55.3141 40.82 55.9841 40.645 56.7241 40.645C57.3641 40.645 57.9591 40.795 58.5091 41.095C59.0591 41.385 59.4791 41.77 59.7691 42.25V37.9H61.1491V49H59.7691V47.455C59.4991 47.945 59.0991 48.35 58.5691 48.67C58.0391 48.98 57.4191 49.135 56.7091 49.135C55.9791 49.135 55.3141 48.955 54.7141 48.595C54.1241 48.235 53.6591 47.73 53.3191 47.08C52.9791 46.43 52.8091 45.69 52.8091 44.86ZM59.7691 44.875C59.7691 44.255 59.6441 43.715 59.3941 43.255C59.1441 42.795 58.8041 42.445 58.3741 42.205C57.9541 41.955 57.4891 41.83 56.9791 41.83C56.4691 41.83 56.0041 41.95 55.5841 42.19C55.1641 42.43 54.8291 42.78 54.5791 43.24C54.3291 43.7 54.2041 44.24 54.2041 44.86C54.2041 45.49 54.3291 46.04 54.5791 46.51C54.8291 46.97 55.1641 47.325 55.5841 47.575C56.0041 47.815 56.4691 47.935 56.9791 47.935C57.4891 47.935 57.9541 47.815 58.3741 47.575C58.8041 47.325 59.1441 46.97 59.3941 46.51C59.6441 46.04 59.7691 45.495 59.7691 44.875Z" fill="#654DFF"/>
<defs>
<clipPath id="clip0_50_103">
<rect width="27.9689" height="28.3034" fill="white" transform="translate(17.4741 4.99472)"/>
</clipPath>
</defs>
</svg>
