<svg width="49" height="49" viewBox="0 0 49 49" fill="none" xmlns="http://www.w3.org/2000/svg">
<path d="M48.2609 0H15C6.71573 0 -3.8147e-06 6.71573 -3.8147e-06 15V33.1846C-3.8147e-06 41.4689 6.71573 48.1846 15 48.1846H48.2609V0Z" fill="#999999"/>
<path d="M15.128 31.304C15.928 31.304 16.576 31.548 17.072 32.036C17.568 32.516 17.816 33.212 17.816 34.124V38H16.736V34.28C16.736 33.624 16.572 33.124 16.244 32.78C15.916 32.428 15.468 32.252 14.9 32.252C14.324 32.252 13.864 32.432 13.52 32.792C13.184 33.152 13.016 33.676 13.016 34.364V38H11.924V31.424H13.016V32.36C13.232 32.024 13.524 31.764 13.892 31.58C14.268 31.396 14.68 31.304 15.128 31.304ZM25.5998 34.46C25.5998 34.668 25.5878 34.888 25.5638 35.12H20.3078C20.3478 35.768 20.5678 36.276 20.9678 36.644C21.3758 37.004 21.8678 37.184 22.4438 37.184C22.9158 37.184 23.3078 37.076 23.6198 36.86C23.9398 36.636 24.1638 36.34 24.2918 35.972H25.4678C25.2918 36.604 24.9398 37.12 24.4118 37.52C23.8838 37.912 23.2278 38.108 22.4438 38.108C21.8198 38.108 21.2598 37.968 20.7638 37.688C20.2758 37.408 19.8918 37.012 19.6118 36.5C19.3318 35.98 19.1918 35.38 19.1918 34.7C19.1918 34.02 19.3278 33.424 19.5998 32.912C19.8718 32.4 20.2518 32.008 20.7398 31.736C21.2358 31.456 21.8038 31.316 22.4438 31.316C23.0678 31.316 23.6198 31.452 24.0998 31.724C24.5798 31.996 24.9478 32.372 25.2038 32.852C25.4678 33.324 25.5998 33.86 25.5998 34.46ZM24.4718 34.232C24.4718 33.816 24.3798 33.46 24.1958 33.164C24.0118 32.86 23.7598 32.632 23.4398 32.48C23.1278 32.32 22.7798 32.24 22.3958 32.24C21.8438 32.24 21.3718 32.416 20.9798 32.768C20.5958 33.12 20.3758 33.608 20.3198 34.232H24.4718ZM30.4732 38L28.9132 35.552L27.4132 38H26.2732L28.3972 34.736L26.2732 31.424H27.5092L29.0692 33.86L30.5572 31.424H31.6972L29.5852 34.676L31.7092 38H30.4732ZM34.1154 32.324V36.2C34.1154 36.52 34.1834 36.748 34.3194 36.884C34.4554 37.012 34.6914 37.076 35.0274 37.076H35.8314V38H34.8474C34.2394 38 33.7834 37.86 33.4794 37.58C33.1754 37.3 33.0234 36.84 33.0234 36.2V32.324H32.1714V31.424H33.0234V29.768H34.1154V31.424H35.8314V32.324H34.1154Z" fill="black"/>
<path d="M26.5 10.25L25.5616 11.1642L29.2234 14.8438H21.25V16.1562H29.2234L25.5616 19.8135L26.5 20.75L31.75 15.5L26.5 10.25Z" fill="black"/>
<path d="M26.5 24.6875C24.6829 24.6875 22.9066 24.1487 21.3957 23.1391C19.8848 22.1296 18.7072 20.6947 18.0119 19.0159C17.3165 17.3371 17.1345 15.4898 17.489 13.7076C17.8435 11.9254 18.7186 10.2883 20.0035 9.00345C21.2884 7.71856 22.9254 6.84353 24.7076 6.48903C26.4898 6.13453 28.3371 6.31647 30.0159 7.01185C31.6947 7.70723 33.1296 8.88482 34.1391 10.3957C35.1487 11.9066 35.6875 13.6829 35.6875 15.5C35.6847 17.9358 34.7159 20.2711 32.9935 21.9935C31.2711 23.7159 28.9358 24.6847 26.5 24.6875ZM26.5 7.625C24.9425 7.625 23.4199 8.08686 22.1249 8.95217C20.8299 9.81749 19.8205 11.0474 19.2245 12.4864C18.6284 13.9253 18.4725 15.5087 18.7763 17.0363C19.0802 18.5639 19.8302 19.9671 20.9315 21.0685C22.0329 22.1698 23.4361 22.9198 24.9637 23.2237C26.4913 23.5275 28.0747 23.3716 29.5136 22.7755C30.9526 22.1795 32.1825 21.1701 33.0478 19.8751C33.9131 18.5801 34.375 17.0575 34.375 15.5C34.3726 13.4122 33.5421 11.4105 32.0658 9.93422C30.5895 8.45789 28.5878 7.62743 26.5 7.625Z" fill="black"/>
</svg>
