<svg width="68" height="68" viewBox="0 0 68 68" fill="none" xmlns="http://www.w3.org/2000/svg">
<path d="M0 15C0 6.71573 6.71573 0 15 0H53C61.2843 0 68 6.71573 68 15V53C68 61.2843 61.2843 68 53 68H15C6.71573 68 0 61.2843 0 53V15Z" fill="#C9DDF4" fill-opacity="0.8"/>
<g clip-path="url(#clip0_9_247)">
<path d="M30.625 11.6776C30.8629 11.9667 31.0087 12.3206 31.0435 12.6934C31.0782 13.0662 31.0004 13.4409 30.82 13.769C29.4108 16.3563 28.6748 19.2565 28.6799 22.2027C28.6799 32.0039 36.67 39.9404 46.5175 39.9404C47.8021 39.9404 49.0525 39.8064 50.2542 39.5504C50.6226 39.4707 51.0063 39.5012 51.3574 39.6382C51.7085 39.7751 52.0115 40.0125 52.2286 40.3207C52.4577 40.6411 52.5745 41.0282 52.5608 41.4219C52.5471 41.8155 52.4038 42.1936 52.153 42.4974C50.2412 44.8457 47.8295 46.7379 45.0936 48.0358C42.3577 49.3338 39.3666 50.0048 36.3385 50C25.1016 50 16 40.9471 16 29.7931C16 21.3984 21.1529 14.198 28.4897 11.1462C28.8552 10.9918 29.2609 10.9601 29.646 11.0559C30.031 11.1517 30.3745 11.3699 30.625 11.6776V11.6776Z" fill="black"/>
</g>
<path d="M20.559 59.412C20.559 58.684 20.7063 58.047 21.001 57.501C21.2957 56.9463 21.6987 56.5173 22.21 56.214C22.73 55.9107 23.3107 55.759 23.952 55.759C24.5067 55.759 25.0223 55.889 25.499 56.149C25.9757 56.4003 26.3397 56.734 26.591 57.15V53.38H27.787V63H26.591V61.661C26.357 62.0857 26.0103 62.4367 25.551 62.714C25.0917 62.9827 24.5543 63.117 23.939 63.117C23.3063 63.117 22.73 62.961 22.21 62.649C21.6987 62.337 21.2957 61.8993 21.001 61.336C20.7063 60.7727 20.559 60.1313 20.559 59.412ZM26.591 59.425C26.591 58.8877 26.4827 58.4197 26.266 58.021C26.0493 57.6223 25.7547 57.319 25.382 57.111C25.018 56.8943 24.615 56.786 24.173 56.786C23.731 56.786 23.328 56.89 22.964 57.098C22.6 57.306 22.3097 57.6093 22.093 58.008C21.8763 58.4067 21.768 58.8747 21.768 59.412C21.768 59.958 21.8763 60.4347 22.093 60.842C22.3097 61.2407 22.6 61.5483 22.964 61.765C23.328 61.973 23.731 62.077 24.173 62.077C24.615 62.077 25.018 61.973 25.382 61.765C25.7547 61.5483 26.0493 61.2407 26.266 60.842C26.4827 60.4347 26.591 59.9623 26.591 59.425ZM29.3442 59.412C29.3442 58.684 29.4915 58.047 29.7862 57.501C30.0808 56.9463 30.4838 56.5173 30.9952 56.214C31.5152 55.9107 32.0915 55.759 32.7242 55.759C33.3482 55.759 33.8898 55.8933 34.3492 56.162C34.8085 56.4307 35.1508 56.7687 35.3762 57.176V55.876H36.5722V63H35.3762V61.674C35.1422 62.09 34.7912 62.4367 34.3232 62.714C33.8638 62.9827 33.3265 63.117 32.7112 63.117C32.0785 63.117 31.5065 62.961 30.9952 62.649C30.4838 62.337 30.0808 61.8993 29.7862 61.336C29.4915 60.7727 29.3442 60.1313 29.3442 59.412ZM35.3762 59.425C35.3762 58.8877 35.2678 58.4197 35.0512 58.021C34.8345 57.6223 34.5398 57.319 34.1672 57.111C33.8032 56.8943 33.4002 56.786 32.9582 56.786C32.5162 56.786 32.1132 56.89 31.7492 57.098C31.3852 57.306 31.0948 57.6093 30.8782 58.008C30.6615 58.4067 30.5532 58.8747 30.5532 59.412C30.5532 59.958 30.6615 60.4347 30.8782 60.842C31.0948 61.2407 31.3852 61.5483 31.7492 61.765C32.1132 61.973 32.5162 62.077 32.9582 62.077C33.4002 62.077 33.8032 61.973 34.1672 61.765C34.5398 61.5483 34.8345 61.2407 35.0512 60.842C35.2678 60.4347 35.3762 59.9623 35.3762 59.425ZM39.7543 57.033C39.9623 56.6257 40.257 56.3093 40.6383 56.084C41.0283 55.8587 41.5006 55.746 42.0553 55.746V56.968H41.7433C40.4173 56.968 39.7543 57.6873 39.7543 59.126V63H38.5713V55.876H39.7543V57.033ZM47.3989 63L44.6039 59.854V63H43.4209V53.38H44.6039V59.035L47.3469 55.876H48.9979L45.6439 59.425L49.0109 63H47.3989Z" fill="black"/>
<defs>
<clipPath id="clip0_9_247">
<rect width="39" height="39" fill="white" transform="translate(16 11)"/>
</clipPath>
</defs>
</svg>
