<svg width="176" height="75" viewBox="0 0 176 75" fill="none" xmlns="http://www.w3.org/2000/svg">
<rect width="176" height="75" fill="#D9D9D9"/>
<path d="M34.688 15.416C34.688 14.328 34.9333 13.352 35.424 12.488C35.9147 11.6133 36.5813 10.9307 37.424 10.44C38.2773 9.94933 39.2213 9.704 40.256 9.704C41.472 9.704 42.5333 9.99733 43.44 10.584C44.3467 11.1707 45.008 12.0027 45.424 13.08H43.68C43.3707 12.408 42.9227 11.8907 42.336 11.528C41.76 11.1653 41.0667 10.984 40.256 10.984C39.4773 10.984 38.7787 11.1653 38.16 11.528C37.5413 11.8907 37.056 12.408 36.704 13.08C36.352 13.7413 36.176 14.52 36.176 15.416C36.176 16.3013 36.352 17.08 36.704 17.752C37.056 18.4133 37.5413 18.9253 38.16 19.288C38.7787 19.6507 39.4773 19.832 40.256 19.832C41.0667 19.832 41.76 19.656 42.336 19.304C42.9227 18.9413 43.3707 18.424 43.68 17.752H45.424C45.008 18.8187 44.3467 19.6453 43.44 20.232C42.5333 20.808 41.472 21.096 40.256 21.096C39.2213 21.096 38.2773 20.856 37.424 20.376C36.5813 19.8853 35.9147 19.208 35.424 18.344C34.9333 17.48 34.688 16.504 34.688 15.416ZM51.4154 21.144C50.594 21.144 49.8474 20.9573 49.1754 20.584C48.514 20.2107 47.9914 19.6827 47.6074 19C47.234 18.3067 47.0474 17.5067 47.0474 16.6C47.0474 15.704 47.2394 14.9147 47.6234 14.232C48.018 13.5387 48.5514 13.0107 49.2234 12.648C49.8954 12.2747 50.6474 12.088 51.4794 12.088C52.3114 12.088 53.0634 12.2747 53.7354 12.648C54.4074 13.0107 54.9354 13.5333 55.3194 14.216C55.714 14.8987 55.9114 15.6933 55.9114 16.6C55.9114 17.5067 55.7087 18.3067 55.3034 19C54.9087 19.6827 54.37 20.2107 53.6874 20.584C53.0047 20.9573 52.2474 21.144 51.4154 21.144ZM51.4154 19.864C51.938 19.864 52.4287 19.7413 52.8874 19.496C53.346 19.2507 53.714 18.8827 53.9914 18.392C54.2794 17.9013 54.4234 17.304 54.4234 16.6C54.4234 15.896 54.2847 15.2987 54.0074 14.808C53.73 14.3173 53.3674 13.9547 52.9194 13.72C52.4714 13.4747 51.986 13.352 51.4634 13.352C50.93 13.352 50.4394 13.4747 49.9914 13.72C49.554 13.9547 49.202 14.3173 48.9354 14.808C48.6687 15.2987 48.5354 15.896 48.5354 16.6C48.5354 17.3147 48.6634 17.9173 48.9194 18.408C49.186 18.8987 49.538 19.2667 49.9754 19.512C50.4127 19.7467 50.8927 19.864 51.4154 19.864ZM59.2818 9.16V21H57.8258V9.16H59.2818ZM65.5873 21.144C64.7659 21.144 64.0193 20.9573 63.3473 20.584C62.6859 20.2107 62.1633 19.6827 61.7793 19C61.4059 18.3067 61.2193 17.5067 61.2193 16.6C61.2193 15.704 61.4113 14.9147 61.7953 14.232C62.1899 13.5387 62.7233 13.0107 63.3953 12.648C64.0673 12.2747 64.8193 12.088 65.6513 12.088C66.4833 12.088 67.2353 12.2747 67.9073 12.648C68.5793 13.0107 69.1073 13.5333 69.4913 14.216C69.8859 14.8987 70.0833 15.6933 70.0833 16.6C70.0833 17.5067 69.8806 18.3067 69.4753 19C69.0806 19.6827 68.5419 20.2107 67.8593 20.584C67.1766 20.9573 66.4193 21.144 65.5873 21.144ZM65.5873 19.864C66.1099 19.864 66.6006 19.7413 67.0593 19.496C67.5179 19.2507 67.8859 18.8827 68.1633 18.392C68.4513 17.9013 68.5953 17.304 68.5953 16.6C68.5953 15.896 68.4566 15.2987 68.1793 14.808C67.9019 14.3173 67.5393 13.9547 67.0913 13.72C66.6433 13.4747 66.1579 13.352 65.6353 13.352C65.1019 13.352 64.6113 13.4747 64.1633 13.72C63.7259 13.9547 63.3739 14.3173 63.1073 14.808C62.8406 15.2987 62.7073 15.896 62.7073 16.6C62.7073 17.3147 62.8353 17.9173 63.0913 18.408C63.3579 18.8987 63.7099 19.2667 64.1473 19.512C64.5846 19.7467 65.0646 19.864 65.5873 19.864ZM73.4536 13.656C73.7096 13.1547 74.0723 12.7653 74.5416 12.488C75.0216 12.2107 75.603 12.072 76.2856 12.072V13.576H75.9016C74.2696 13.576 73.4536 14.4613 73.4536 16.232V21H71.9976V12.232H73.4536V13.656ZM78.4304 21.096C78.153 21.096 77.9184 21 77.7264 20.808C77.5344 20.616 77.4384 20.3813 77.4384 20.104C77.4384 19.8267 77.5344 19.592 77.7264 19.4C77.9184 19.208 78.153 19.112 78.4304 19.112C78.697 19.112 78.921 19.208 79.1024 19.4C79.2944 19.592 79.3904 19.8267 79.3904 20.104C79.3904 20.3813 79.2944 20.616 79.1024 20.808C78.921 21 78.697 21.096 78.4304 21.096ZM78.4304 14.248C78.153 14.248 77.9184 14.152 77.7264 13.96C77.5344 13.768 77.4384 13.5333 77.4384 13.256C77.4384 12.9787 77.5344 12.744 77.7264 12.552C77.9184 12.36 78.153 12.264 78.4304 12.264C78.697 12.264 78.921 12.36 79.1024 12.552C79.2944 12.744 79.3904 12.9787 79.3904 13.256C79.3904 13.5333 79.2944 13.768 79.1024 13.96C78.921 14.152 78.697 14.248 78.4304 14.248Z" fill="#666666"/>
<path d="M20.5 10.125C21.4665 10.125 22.25 9.3415 22.25 8.375C22.25 7.4085 21.4665 6.625 20.5 6.625C19.5335 6.625 18.75 7.4085 18.75 8.375C18.75 9.3415 19.5335 10.125 20.5 10.125Z" stroke="#666666" stroke-width="2" stroke-linecap="round" stroke-linejoin="round"/>
<path d="M25.5076 10.4838C24.6111 9.56472 23.4789 8.91023 22.2351 8.592M18.7605 8.592C17.4961 8.91628 16.3476 9.58794 15.4451 10.531M13.7993 13.3441C13.6003 14.0024 13.4995 14.6864 13.5 15.3741C13.5 16.0199 13.5875 16.6455 13.7511 17.2396M15.4661 20.2391C16.3642 21.1697 17.5028 21.833 18.7553 22.1554M22.2535 22.1528C23.5018 21.8296 24.6365 21.1676 25.5321 20.24M27.2489 17.2388C27.416 16.6313 27.5005 16.0041 27.5 15.3741C27.5 14.7056 27.4064 14.059 27.2314 13.4465" stroke="#666666" stroke-width="2" stroke-linecap="round" stroke-linejoin="round"/>
<path d="M14.375 20.625C15.3415 20.625 16.125 19.8415 16.125 18.875C16.125 17.9085 15.3415 17.125 14.375 17.125C13.4085 17.125 12.625 17.9085 12.625 18.875C12.625 19.8415 13.4085 20.625 14.375 20.625Z" stroke="#666666" stroke-width="2" stroke-linecap="round" stroke-linejoin="round"/>
<path d="M26.625 20.625C27.5915 20.625 28.375 19.8415 28.375 18.875C28.375 17.9085 27.5915 17.125 26.625 17.125C25.6585 17.125 24.875 17.9085 24.875 18.875C24.875 19.8415 25.6585 20.625 26.625 20.625Z" stroke="#666666" stroke-width="2" stroke-linecap="round" stroke-linejoin="round"/>
</svg>
