<svg width="720" height="113" viewBox="0 0 720 113" fill="none" xmlns="http://www.w3.org/2000/svg">
<path fill-rule="evenodd" clip-rule="evenodd" d="M360 52L362.7 59.9074C365.1 67.8148 370.5 83.6296 375.6 90.4074C381 97.1852 386.1 94.9259 391.2 93.7963C396.6 92.6667 401.7 92.6667 407.1 93.7963C412.2 94.9259 417.3 97.1852 422.7 89.2778C427.8 81.3704 432.9 63.2963 438.3 57.6481C443.4 52 448.8 58.7778 453.9 59.9074C459 61.037 464.4 56.5185 469.5 59.9074C474.9 63.2963 480 74.5926 485.1 77.9815C490.5 81.3704 495.6 76.8519 501 71.2037C506.1 65.5556 511.2 58.7778 516.6 61.037C521.7 63.2963 527.1 74.5926 532.2 76.8519C537.3 79.1111 542.7 72.3333 547.8 73.463C552.9 74.5926 558.3 83.6296 563.4 88.1481C568.8 92.6667 573.9 92.6667 579 89.2778C584.4 85.8889 589.5 79.1111 594.9 72.3333C600 65.5556 605.1 58.7778 610.5 55.3889C615.6 52 621 52 626.1 58.7778C631.2 65.5556 636.6 79.1111 641.7 87.0185C647.1 94.9259 652.2 97.1852 657.3 93.7963C662.7 90.4074 667.8 81.3704 672.9 79.1111C678.3 76.8519 683.4 81.3704 688.8 82.5C693.9 83.6296 699 81.3704 704.4 75.7222C709.5 70.0741 714.9 61.037 717.3 56.5185L720 52V113H717.3C714.9 113 709.5 113 704.4 113C699 113 693.9 113 688.8 113C683.4 113 678.3 113 672.9 113C667.8 113 662.7 113 657.3 113C652.2 113 647.1 113 641.7 113C636.6 113 631.2 113 626.1 113C621 113 615.6 113 610.5 113C605.1 113 600 113 594.9 113C589.5 113 584.4 113 579 113C573.9 113 568.8 113 563.4 113C558.3 113 552.9 113 547.8 113C542.7 113 537.3 113 532.2 113C527.1 113 521.7 113 516.6 113C511.2 113 506.1 113 501 113C495.6 113 490.5 113 485.1 113C480 113 474.9 113 469.5 113C464.4 113 459 113 453.9 113C448.8 113 443.4 113 438.3 113C432.9 113 427.8 113 422.7 113C417.3 113 412.2 113 407.1 113C401.7 113 396.6 113 391.2 113C386.1 113 381 113 375.6 113C370.5 113 365.1 113 362.7 113H360V52Z" fill="#4D82A5"/>
<path fill-rule="evenodd" clip-rule="evenodd" d="M720 0L716.1 18.8333C712.5 37.6667 705 75.3333 697.5 87.8889C690 100.444 682.5 87.8889 675 69.0556C667.5 50.2222 660 25.1111 652.5 29.2963C645 33.4815 637.5 66.963 630 73.2407C622.5 79.5185 615 58.5926 607.5 52.3148C600 46.037 592.5 54.4074 585 52.3148C577.5 50.2222 570 37.6667 562.5 43.9444C555 50.2222 547.5 75.3333 540 87.8889C532.5 100.444 525 100.444 517.5 89.9815C510 79.5185 502.5 58.5926 495 56.5C487.5 54.4074 480 71.1481 472.5 71.1481C465 71.1481 457.5 54.4074 450 50.2222C442.5 46.037 435 54.4074 427.5 60.6852C420 66.963 412.5 71.1481 405 64.8704C397.5 58.5926 390 41.8519 382.5 39.7593C375 37.6667 367.5 50.2222 363.6 56.5L360 62.7778V113H363.6C367.5 113 375 113 382.5 113C390 113 397.5 113 405 113C412.5 113 420 113 427.5 113C435 113 442.5 113 450 113C457.5 113 465 113 472.5 113C480 113 487.5 113 495 113C502.5 113 510 113 517.5 113C525 113 532.5 113 540 113C547.5 113 555 113 562.5 113C570 113 577.5 113 585 113C592.5 113 600 113 607.5 113C615 113 622.5 113 630 113C637.5 113 645 113 652.5 113C660 113 667.5 113 675 113C682.5 113 690 113 697.5 113C705 113 712.5 113 716.1 113H720V0Z" fill="#6750FB" fill-opacity="0.5"/>
<path fill-rule="evenodd" clip-rule="evenodd" d="M0 52L2.7 59.9074C5.1 67.8148 10.5 83.6296 15.6 90.4074C21 97.1852 26.1 94.9259 31.2 93.7963C36.6 92.6667 41.7 92.6667 47.1 93.7963C52.2 94.9259 57.3 97.1852 62.7 89.2778C67.8 81.3704 72.9 63.2963 78.3 57.6481C83.4 52 88.8 58.7778 93.9 59.9074C99 61.037 104.4 56.5185 109.5 59.9074C114.9 63.2963 120 74.5926 125.1 77.9815C130.5 81.3704 135.6 76.8519 141 71.2037C146.1 65.5556 151.2 58.7778 156.6 61.037C161.7 63.2963 167.1 74.5926 172.2 76.8519C177.3 79.1111 182.7 72.3333 187.8 73.463C192.9 74.5926 198.3 83.6296 203.4 88.1481C208.8 92.6667 213.9 92.6667 219 89.2778C224.4 85.8889 229.5 79.1111 234.9 72.3333C240 65.5556 245.1 58.7778 250.5 55.3889C255.6 52 261 52 266.1 58.7778C271.2 65.5556 276.6 79.1111 281.7 87.0185C287.1 94.9259 292.2 97.1852 297.3 93.7963C302.7 90.4074 307.8 81.3704 312.9 79.1111C318.3 76.8519 323.4 81.3704 328.8 82.5C333.9 83.6296 339 81.3704 344.4 75.7222C349.5 70.0741 354.9 61.037 357.3 56.5185L360 52V113H357.3C354.9 113 349.5 113 344.4 113C339 113 333.9 113 328.8 113C323.4 113 318.3 113 312.9 113C307.8 113 302.7 113 297.3 113C292.2 113 287.1 113 281.7 113C276.6 113 271.2 113 266.1 113C261 113 255.6 113 250.5 113C245.1 113 240 113 234.9 113C229.5 113 224.4 113 219 113C213.9 113 208.8 113 203.4 113C198.3 113 192.9 113 187.8 113C182.7 113 177.3 113 172.2 113C167.1 113 161.7 113 156.6 113C151.2 113 146.1 113 141 113C135.6 113 130.5 113 125.1 113C120 113 114.9 113 109.5 113C104.4 113 99 113 93.9 113C88.8 113 83.4 113 78.3 113C72.9 113 67.8 113 62.7 113C57.3 113 52.2 113 47.1 113C41.7 113 36.6 113 31.2 113C26.1 113 21 113 15.6 113C10.5 113 5.1 113 2.7 113H0V52Z" fill="#4D82A5"/>
<path fill-rule="evenodd" clip-rule="evenodd" d="M0 0L3.9 18.8333C7.5 37.6667 15 75.3333 22.5 87.8889C30 100.444 37.5 87.8889 45 69.0556C52.5 50.2222 60 25.1111 67.5 29.2963C75 33.4815 82.5 66.963 90 73.2407C97.5 79.5185 105 58.5926 112.5 52.3148C120 46.037 127.5 54.4074 135 52.3148C142.5 50.2222 150 37.6667 157.5 43.9444C165 50.2222 172.5 75.3333 180 87.8889C187.5 100.444 195 100.444 202.5 89.9815C210 79.5185 217.5 58.5926 225 56.5C232.5 54.4074 240 71.1481 247.5 71.1481C255 71.1481 262.5 54.4074 270 50.2222C277.5 46.037 285 54.4074 292.5 60.6852C300 66.963 307.5 71.1481 315 64.8704C322.5 58.5926 330 41.8519 337.5 39.7593C345 37.6667 352.5 50.2222 356.4 56.5L360 62.7778V113H356.4C352.5 113 345 113 337.5 113C330 113 322.5 113 315 113C307.5 113 300 113 292.5 113C285 113 277.5 113 270 113C262.5 113 255 113 247.5 113C240 113 232.5 113 225 113C217.5 113 210 113 202.5 113C195 113 187.5 113 180 113C172.5 113 165 113 157.5 113C150 113 142.5 113 135 113C127.5 113 120 113 112.5 113C105 113 97.5 113 90 113C82.5 113 75 113 67.5 113C60 113 52.5 113 45 113C37.5 113 30 113 22.5 113C15 113 7.5 113 3.9 113H0V0Z" fill="#6750FB" fill-opacity="0.5"/>
</svg>
