<svg width="728" height="269" viewBox="0 0 728 269" fill="none" xmlns="http://www.w3.org/2000/svg">
<rect x="364" width="360" height="261" fill="#E7E9A6"/>
<rect x="364" y="189" width="360" height="19" fill="#494626"/>
<g filter="url(#filter0_d_63_66)">
<rect x="364" y="208" width="360" height="53" fill="#7FE77D"/>
</g>
<rect width="46.7027" height="2" transform="translate(372 233)" fill="white"/>
<rect width="46.7027" height="2" transform="translate(432.324 233)" fill="white"/>
<rect width="46.7027" height="2" transform="translate(492.649 233)" fill="white"/>
<rect width="46.7027" height="2" transform="translate(552 233)" fill="white"/>
<rect width="46.7027" height="2" transform="translate(612.324 233)" fill="white"/>
<rect width="46.7027" height="2" transform="translate(672.649 234)" fill="white"/>
<rect x="4" width="360" height="261" fill="#E7E9A6"/>
<g filter="url(#filter1_d_63_66)">
<rect x="4" y="208" width="360" height="53" fill="#7FE77D"/>
</g>
<rect x="4" y="189" width="360" height="19" fill="#494626"/>
<rect width="46.7027" height="2" transform="translate(13.7297 232)" fill="white"/>
<rect width="46.7027" height="2" transform="translate(74.0541 232)" fill="white"/>
<rect width="46.7027" height="2" transform="translate(134.378 232)" fill="white"/>
<rect width="46.7027" height="2" transform="translate(193.73 232)" fill="white"/>
<rect width="46.7027" height="2" transform="translate(254.054 232)" fill="white"/>
<rect width="46.7027" height="2" transform="translate(314.378 233)" fill="white"/>
<defs>
<filter id="filter0_d_63_66" x="360" y="208" width="368" height="61" filterUnits="userSpaceOnUse" color-interpolation-filters="sRGB">
<feFlood flood-opacity="0" result="BackgroundImageFix"/>
<feColorMatrix in="SourceAlpha" type="matrix" values="0 0 0 0 0 0 0 0 0 0 0 0 0 0 0 0 0 0 127 0" result="hardAlpha"/>
<feOffset dy="4"/>
<feGaussianBlur stdDeviation="2"/>
<feComposite in2="hardAlpha" operator="out"/>
<feColorMatrix type="matrix" values="0 0 0 0 0 0 0 0 0 0 0 0 0 0 0 0 0 0 0.25 0"/>
<feBlend mode="normal" in2="BackgroundImageFix" result="effect1_dropShadow_63_66"/>
<feBlend mode="normal" in="SourceGraphic" in2="effect1_dropShadow_63_66" result="shape"/>
</filter>
<filter id="filter1_d_63_66" x="0" y="208" width="368" height="61" filterUnits="userSpaceOnUse" color-interpolation-filters="sRGB">
<feFlood flood-opacity="0" result="BackgroundImageFix"/>
<feColorMatrix in="SourceAlpha" type="matrix" values="0 0 0 0 0 0 0 0 0 0 0 0 0 0 0 0 0 0 127 0" result="hardAlpha"/>
<feOffset dy="4"/>
<feGaussianBlur stdDeviation="2"/>
<feComposite in2="hardAlpha" operator="out"/>
<feColorMatrix type="matrix" values="0 0 0 0 0 0 0 0 0 0 0 0 0 0 0 0 0 0 0.25 0"/>
<feBlend mode="normal" in2="BackgroundImageFix" result="effect1_dropShadow_63_66"/>
<feBlend mode="normal" in="SourceGraphic" in2="effect1_dropShadow_63_66" result="shape"/>
</filter>
</defs>
</svg>
