<svg width="720" height="81" viewBox="0 0 720 81" fill="none" xmlns="http://www.w3.org/2000/svg">
<ellipse cx="389.786" cy="18.5" rx="9.75749" ry="9.5" fill="#9CBECC"/>
<ellipse cx="404.165" cy="18.5" rx="9.75749" ry="9.5" fill="#9CBECC"/>
<ellipse cx="399.03" cy="9.5" rx="9.75749" ry="9.5" fill="#9CBECC"/>
<ellipse cx="468.873" cy="43.5" rx="9.75749" ry="9.5" fill="#9CBECC"/>
<ellipse cx="483.252" cy="43.5" rx="9.75749" ry="9.5" fill="#9CBECC"/>
<ellipse cx="478.117" cy="34.5" rx="9.75749" ry="9.5" fill="#9CBECC"/>
<ellipse cx="632.183" cy="71.5" rx="9.75749" ry="9.5" fill="#9CBECC"/>
<ellipse cx="646.562" cy="71.5" rx="9.75749" ry="9.5" fill="#9CBECC"/>
<ellipse cx="641.427" cy="62.5" rx="9.75749" ry="9.5" fill="#9CBECC"/>
<ellipse cx="695.863" cy="23.5" rx="9.75749" ry="9.5" fill="#9CBECC"/>
<ellipse cx="710.242" cy="23.5" rx="9.75749" ry="9.5" fill="#9CBECC"/>
<ellipse cx="705.107" cy="14.5" rx="9.75749" ry="9.5" fill="#9CBECC"/>
<ellipse cx="566.448" cy="23.5" rx="9.75749" ry="9.5" fill="#9CBECC"/>
<ellipse cx="580.827" cy="23.5" rx="9.75749" ry="9.5" fill="#9CBECC"/>
<ellipse cx="575.692" cy="14.5" rx="9.75749" ry="9.5" fill="#9CBECC"/>
<ellipse cx="9.75749" cy="18.5" rx="9.75749" ry="9.5" fill="#9CBECC"/>
<ellipse cx="24.137" cy="18.5" rx="9.75749" ry="9.5" fill="#9CBECC"/>
<ellipse cx="19.0014" cy="9.5" rx="9.75749" ry="9.5" fill="#9CBECC"/>
<ellipse cx="88.8445" cy="43.5" rx="9.75749" ry="9.5" fill="#9CBECC"/>
<ellipse cx="103.224" cy="43.5" rx="9.75749" ry="9.5" fill="#9CBECC"/>
<ellipse cx="98.0884" cy="34.5" rx="9.75749" ry="9.5" fill="#9CBECC"/>
<ellipse cx="252.154" cy="71.5" rx="9.75749" ry="9.5" fill="#9CBECC"/>
<ellipse cx="266.533" cy="71.5" rx="9.75749" ry="9.5" fill="#9CBECC"/>
<ellipse cx="261.398" cy="62.5" rx="9.75749" ry="9.5" fill="#9CBECC"/>
<ellipse cx="315.835" cy="23.5" rx="9.75749" ry="9.5" fill="#9CBECC"/>
<ellipse cx="330.214" cy="23.5" rx="9.75749" ry="9.5" fill="#9CBECC"/>
<ellipse cx="325.078" cy="14.5" rx="9.75749" ry="9.5" fill="#9CBECC"/>
<ellipse cx="186.419" cy="23.5" rx="9.75749" ry="9.5" fill="#9CBECC"/>
<ellipse cx="200.799" cy="23.5" rx="9.75749" ry="9.5" fill="#9CBECC"/>
<ellipse cx="195.663" cy="14.5" rx="9.75749" ry="9.5" fill="#9CBECC"/>
</svg>
