<svg width="176" height="75" viewBox="0 0 176 75" fill="none" xmlns="http://www.w3.org/2000/svg">
<rect width="176" height="75" fill="#8BA9D1"/>
<path d="M42.544 9.928V21H41.088V12.744L37.408 21H36.384L32.688 12.728V21H31.232V9.928H32.8L36.896 19.08L40.992 9.928H42.544ZM48.8373 21.144C48.0159 21.144 47.2693 20.9573 46.5973 20.584C45.9359 20.2107 45.4133 19.6827 45.0293 19C44.6559 18.3067 44.4693 17.5067 44.4693 16.6C44.4693 15.704 44.6613 14.9147 45.0453 14.232C45.4399 13.5387 45.9733 13.0107 46.6453 12.648C47.3173 12.2747 48.0693 12.088 48.9013 12.088C49.7333 12.088 50.4853 12.2747 51.1573 12.648C51.8293 13.0107 52.3573 13.5333 52.7413 14.216C53.1359 14.8987 53.3333 15.6933 53.3333 16.6C53.3333 17.5067 53.1306 18.3067 52.7253 19C52.3306 19.6827 51.7919 20.2107 51.1093 20.584C50.4266 20.9573 49.6693 21.144 48.8373 21.144ZM48.8373 19.864C49.3599 19.864 49.8506 19.7413 50.3093 19.496C50.7679 19.2507 51.1359 18.8827 51.4133 18.392C51.7013 17.9013 51.8453 17.304 51.8453 16.6C51.8453 15.896 51.7066 15.2987 51.4293 14.808C51.1519 14.3173 50.7893 13.9547 50.3413 13.72C49.8933 13.4747 49.4079 13.352 48.8853 13.352C48.3519 13.352 47.8613 13.4747 47.4133 13.72C46.9759 13.9547 46.6239 14.3173 46.3573 14.808C46.0906 15.2987 45.9573 15.896 45.9573 16.6C45.9573 17.3147 46.0853 17.9173 46.3413 18.408C46.6079 18.8987 46.9599 19.2667 47.3973 19.512C47.8346 19.7467 48.3146 19.864 48.8373 19.864ZM54.7036 16.584C54.7036 15.688 54.885 14.904 55.2476 14.232C55.6103 13.5493 56.1063 13.0213 56.7356 12.648C57.3756 12.2747 58.0903 12.088 58.8796 12.088C59.5623 12.088 60.197 12.248 60.7836 12.568C61.3703 12.8773 61.8183 13.288 62.1276 13.8V9.16H63.5996V21H62.1276V19.352C61.8396 19.8747 61.413 20.3067 60.8476 20.648C60.2823 20.9787 59.621 21.144 58.8636 21.144C58.085 21.144 57.3756 20.952 56.7356 20.568C56.1063 20.184 55.6103 19.6453 55.2476 18.952C54.885 18.2587 54.7036 17.4693 54.7036 16.584ZM62.1276 16.6C62.1276 15.9387 61.9943 15.3627 61.7276 14.872C61.461 14.3813 61.0983 14.008 60.6396 13.752C60.1916 13.4853 59.6956 13.352 59.1516 13.352C58.6076 13.352 58.1116 13.48 57.6636 13.736C57.2156 13.992 56.8583 14.3653 56.5916 14.856C56.325 15.3467 56.1916 15.9227 56.1916 16.584C56.1916 17.256 56.325 17.8427 56.5916 18.344C56.8583 18.8347 57.2156 19.2133 57.6636 19.48C58.1116 19.736 58.6076 19.864 59.1516 19.864C59.6956 19.864 60.1916 19.736 60.6396 19.48C61.0983 19.2133 61.461 18.8347 61.7276 18.344C61.9943 17.8427 62.1276 17.2613 62.1276 16.6ZM74.0601 16.28C74.0601 16.5573 74.0441 16.8507 74.0121 17.16H67.0041C67.0575 18.024 67.3508 18.7013 67.8841 19.192C68.4281 19.672 69.0841 19.912 69.8521 19.912C70.4815 19.912 71.0041 19.768 71.4201 19.48C71.8468 19.1813 72.1455 18.7867 72.3161 18.296H73.8841C73.6495 19.1387 73.1801 19.8267 72.4761 20.36C71.7721 20.8827 70.8975 21.144 69.8521 21.144C69.0201 21.144 68.2735 20.9573 67.6121 20.584C66.9615 20.2107 66.4495 19.6827 66.0761 19C65.7028 18.3067 65.5161 17.5067 65.5161 16.6C65.5161 15.6933 65.6975 14.8987 66.0601 14.216C66.4228 13.5333 66.9295 13.0107 67.5801 12.648C68.2415 12.2747 68.9988 12.088 69.8521 12.088C70.6841 12.088 71.4201 12.2693 72.0601 12.632C72.7001 12.9947 73.1908 13.496 73.5321 14.136C73.8841 14.7653 74.0601 15.48 74.0601 16.28ZM72.5561 15.976C72.5561 15.4213 72.4335 14.9467 72.1881 14.552C71.9428 14.1467 71.6068 13.8427 71.1801 13.64C70.7641 13.4267 70.3001 13.32 69.7881 13.32C69.0521 13.32 68.4228 13.5547 67.9001 14.024C67.3881 14.4933 67.0948 15.144 67.0201 15.976H72.5561ZM77.438 9.16V21H75.982V9.16H77.438ZM84.6491 21.096C84.3718 21.096 84.1371 21 83.9451 20.808C83.7531 20.616 83.6571 20.3813 83.6571 20.104C83.6571 19.8267 83.7531 19.592 83.9451 19.4C84.1371 19.208 84.3718 19.112 84.6491 19.112C84.9158 19.112 85.1398 19.208 85.3211 19.4C85.5131 19.592 85.6091 19.8267 85.6091 20.104C85.6091 20.3813 85.5131 20.616 85.3211 20.808C85.1398 21 84.9158 21.096 84.6491 21.096ZM84.6491 14.248C84.3718 14.248 84.1371 14.152 83.9451 13.96C83.7531 13.768 83.6571 13.5333 83.6571 13.256C83.6571 12.9787 83.7531 12.744 83.9451 12.552C84.1371 12.36 84.3718 12.264 84.6491 12.264C84.9158 12.264 85.1398 12.36 85.3211 12.552C85.5131 12.744 85.6091 12.9787 85.6091 13.256C85.6091 13.5333 85.5131 13.768 85.3211 13.96C85.1398 14.152 84.9158 14.248 84.6491 14.248Z" fill="#6750FB"/>
<path d="M16.5 10.125C17.4665 10.125 18.25 9.3415 18.25 8.375C18.25 7.4085 17.4665 6.625 16.5 6.625C15.5335 6.625 14.75 7.4085 14.75 8.375C14.75 9.3415 15.5335 10.125 16.5 10.125Z" stroke="#6750FB" stroke-width="2" stroke-linecap="round" stroke-linejoin="round"/>
<path d="M21.5076 10.4838C20.6111 9.56472 19.4789 8.91023 18.2351 8.592M14.7605 8.592C13.4961 8.91628 12.3476 9.58794 11.4451 10.531M9.79925 13.3441C9.60033 14.0024 9.49949 14.6864 9.5 15.3741C9.5 16.0199 9.5875 16.6455 9.75113 17.2396M11.4661 20.2391C12.3642 21.1697 13.5028 21.833 14.7553 22.1554M18.2535 22.1528C19.5018 21.8296 20.6365 21.1676 21.5321 20.24M23.2489 17.2388C23.416 16.6313 23.5005 16.0041 23.5 15.3741C23.5 14.7056 23.4064 14.059 23.2314 13.4465" stroke="#6750FB" stroke-width="2" stroke-linecap="round" stroke-linejoin="round"/>
<path d="M10.375 20.625C11.3415 20.625 12.125 19.8415 12.125 18.875C12.125 17.9085 11.3415 17.125 10.375 17.125C9.4085 17.125 8.625 17.9085 8.625 18.875C8.625 19.8415 9.4085 20.625 10.375 20.625Z" stroke="#6750FB" stroke-width="2" stroke-linecap="round" stroke-linejoin="round"/>
<path d="M22.625 20.625C23.5915 20.625 24.375 19.8415 24.375 18.875C24.375 17.9085 23.5915 17.125 22.625 17.125C21.6585 17.125 20.875 17.9085 20.875 18.875C20.875 19.8415 21.6585 20.625 22.625 20.625Z" stroke="#6750FB" stroke-width="2" stroke-linecap="round" stroke-linejoin="round"/>
</svg>
