<svg width="176" height="74" viewBox="0 0 176 74" fill="none" xmlns="http://www.w3.org/2000/svg">
<rect width="176" height="74" fill="#D9D9D9"/>
<path d="M41.104 22L38.448 17.44H36.688V22H35.232V10.848H38.832C39.6747 10.848 40.384 10.992 40.96 11.28C41.5467 11.568 41.984 11.9573 42.272 12.448C42.56 12.9387 42.704 13.4987 42.704 14.128C42.704 14.896 42.48 15.5733 42.032 16.16C41.5947 16.7467 40.9333 17.136 40.048 17.328L42.848 22H41.104ZM36.688 16.272H38.832C39.6213 16.272 40.2133 16.08 40.608 15.696C41.0027 15.3013 41.2 14.7787 41.2 14.128C41.2 13.4667 41.0027 12.9547 40.608 12.592C40.224 12.2293 39.632 12.048 38.832 12.048H36.688V16.272ZM52.9664 17.28C52.9664 17.5573 52.9504 17.8507 52.9184 18.16H45.9104C45.9637 19.024 46.257 19.7013 46.7904 20.192C47.3344 20.672 47.9904 20.912 48.7584 20.912C49.3877 20.912 49.9104 20.768 50.3264 20.48C50.753 20.1813 51.0517 19.7867 51.2224 19.296H52.7904C52.5557 20.1387 52.0864 20.8267 51.3824 21.36C50.6784 21.8827 49.8037 22.144 48.7584 22.144C47.9264 22.144 47.1797 21.9573 46.5184 21.584C45.8677 21.2107 45.3557 20.6827 44.9824 20C44.609 19.3067 44.4224 18.5067 44.4224 17.6C44.4224 16.6933 44.6037 15.8987 44.9664 15.216C45.329 14.5333 45.8357 14.0107 46.4864 13.648C47.1477 13.2747 47.905 13.088 48.7584 13.088C49.5904 13.088 50.3264 13.2693 50.9664 13.632C51.6064 13.9947 52.097 14.496 52.4384 15.136C52.7904 15.7653 52.9664 16.48 52.9664 17.28ZM51.4624 16.976C51.4624 16.4213 51.3397 15.9467 51.0944 15.552C50.849 15.1467 50.513 14.8427 50.0864 14.64C49.6704 14.4267 49.2064 14.32 48.6944 14.32C47.9584 14.32 47.329 14.5547 46.8064 15.024C46.2944 15.4933 46.001 16.144 45.9264 16.976H51.4624ZM58.4563 14.432H56.6163V22H55.1603V14.432H54.0243V13.232H55.1603V12.608C55.1603 11.6267 55.4109 10.912 55.9123 10.464C56.4243 10.0053 57.2403 9.776 58.3602 9.776V10.992C57.7203 10.992 57.2669 11.12 57.0003 11.376C56.7443 11.6213 56.6163 12.032 56.6163 12.608V13.232H58.4563V14.432ZM68.1539 17.28C68.1539 17.5573 68.1379 17.8507 68.1059 18.16H61.0979C61.1512 19.024 61.4445 19.7013 61.9779 20.192C62.5219 20.672 63.1779 20.912 63.9459 20.912C64.5752 20.912 65.0979 20.768 65.5139 20.48C65.9405 20.1813 66.2392 19.7867 66.4099 19.296H67.9779C67.7432 20.1387 67.2739 20.8267 66.5699 21.36C65.8659 21.8827 64.9912 22.144 63.9459 22.144C63.1139 22.144 62.3672 21.9573 61.7059 21.584C61.0552 21.2107 60.5432 20.6827 60.1699 20C59.7965 19.3067 59.6099 18.5067 59.6099 17.6C59.6099 16.6933 59.7912 15.8987 60.1539 15.216C60.5165 14.5333 61.0232 14.0107 61.6739 13.648C62.3352 13.2747 63.0925 13.088 63.9459 13.088C64.7779 13.088 65.5139 13.2693 66.1539 13.632C66.7939 13.9947 67.2845 14.496 67.6259 15.136C67.9779 15.7653 68.1539 16.48 68.1539 17.28ZM66.6499 16.976C66.6499 16.4213 66.5272 15.9467 66.2819 15.552C66.0365 15.1467 65.7005 14.8427 65.2739 14.64C64.8579 14.4267 64.3939 14.32 63.8819 14.32C63.1459 14.32 62.5165 14.5547 61.9939 15.024C61.4819 15.4933 61.1885 16.144 61.1139 16.976H66.6499ZM71.5318 14.656C71.7878 14.1547 72.1504 13.7653 72.6198 13.488C73.0998 13.2107 73.6811 13.072 74.3638 13.072V14.576H73.9798C72.3478 14.576 71.5318 15.4613 71.5318 17.232V22H70.0758V13.232H71.5318V14.656ZM84.0445 17.28C84.0445 17.5573 84.0285 17.8507 83.9965 18.16H76.9885C77.0418 19.024 77.3352 19.7013 77.8685 20.192C78.4125 20.672 79.0685 20.912 79.8365 20.912C80.4658 20.912 80.9885 20.768 81.4045 20.48C81.8312 20.1813 82.1298 19.7867 82.3005 19.296H83.8685C83.6338 20.1387 83.1645 20.8267 82.4605 21.36C81.7565 21.8827 80.8818 22.144 79.8365 22.144C79.0045 22.144 78.2578 21.9573 77.5965 21.584C76.9458 21.2107 76.4338 20.6827 76.0605 20C75.6872 19.3067 75.5005 18.5067 75.5005 17.6C75.5005 16.6933 75.6818 15.8987 76.0445 15.216C76.4072 14.5333 76.9138 14.0107 77.5645 13.648C78.2258 13.2747 78.9832 13.088 79.8365 13.088C80.6685 13.088 81.4045 13.2693 82.0445 13.632C82.6845 13.9947 83.1752 14.496 83.5165 15.136C83.8685 15.7653 84.0445 16.48 84.0445 17.28ZM82.5405 16.976C82.5405 16.4213 82.4178 15.9467 82.1725 15.552C81.9272 15.1467 81.5912 14.8427 81.1645 14.64C80.7485 14.4267 80.2845 14.32 79.7725 14.32C79.0365 14.32 78.4072 14.5547 77.8845 15.024C77.3725 15.4933 77.0792 16.144 77.0045 16.976H82.5405ZM90.2384 13.072C91.305 13.072 92.169 13.3973 92.8304 14.048C93.4917 14.688 93.8224 15.616 93.8224 16.832V22H92.3824V17.04C92.3824 16.1653 92.1637 15.4987 91.7264 15.04C91.289 14.5707 90.6917 14.336 89.9344 14.336C89.1664 14.336 88.553 14.576 88.0944 15.056C87.6464 15.536 87.4224 16.2347 87.4224 17.152V22H85.9664V13.232H87.4224V14.48C87.7104 14.032 88.0997 13.6853 88.5904 13.44C89.0917 13.1947 89.641 13.072 90.2384 13.072ZM95.6568 17.6C95.6568 16.6933 95.8381 15.904 96.2008 15.232C96.5634 14.5493 97.0648 14.0213 97.7048 13.648C98.3554 13.2747 99.0968 13.088 99.9288 13.088C101.006 13.088 101.891 13.3493 102.585 13.872C103.289 14.3947 103.753 15.12 103.977 16.048H102.409C102.259 15.5147 101.966 15.0933 101.529 14.784C101.102 14.4747 100.569 14.32 99.9288 14.32C99.0968 14.32 98.4248 14.608 97.9128 15.184C97.4008 15.7493 97.1448 16.5547 97.1448 17.6C97.1448 18.656 97.4008 19.472 97.9128 20.048C98.4248 20.624 99.0968 20.912 99.9288 20.912C100.569 20.912 101.102 20.7627 101.529 20.464C101.955 20.1653 102.249 19.7387 102.409 19.184H103.977C103.742 20.08 103.273 20.8 102.569 21.344C101.865 21.8773 100.985 22.144 99.9288 22.144C99.0968 22.144 98.3554 21.9573 97.7048 21.584C97.0648 21.2107 96.5634 20.6827 96.2008 20C95.8381 19.3173 95.6568 18.5173 95.6568 17.6ZM113.92 17.28C113.92 17.5573 113.904 17.8507 113.872 18.16H106.864C106.917 19.024 107.21 19.7013 107.744 20.192C108.288 20.672 108.944 20.912 109.712 20.912C110.341 20.912 110.864 20.768 111.28 20.48C111.706 20.1813 112.005 19.7867 112.176 19.296H113.744C113.509 20.1387 113.04 20.8267 112.336 21.36C111.632 21.8827 110.757 22.144 109.712 22.144C108.88 22.144 108.133 21.9573 107.472 21.584C106.821 21.2107 106.309 20.6827 105.936 20C105.562 19.3067 105.376 18.5067 105.376 17.6C105.376 16.6933 105.557 15.8987 105.92 15.216C106.282 14.5333 106.789 14.0107 107.44 13.648C108.101 13.2747 108.858 13.088 109.712 13.088C110.544 13.088 111.28 13.2693 111.92 13.632C112.56 13.9947 113.05 14.496 113.392 15.136C113.744 15.7653 113.92 16.48 113.92 17.28ZM112.416 16.976C112.416 16.4213 112.293 15.9467 112.048 15.552C111.802 15.1467 111.466 14.8427 111.04 14.64C110.624 14.4267 110.16 14.32 109.648 14.32C108.912 14.32 108.282 14.5547 107.76 15.024C107.248 15.4933 106.954 16.144 106.88 16.976H112.416ZM116.305 22.096C116.028 22.096 115.793 22 115.601 21.808C115.409 21.616 115.313 21.3813 115.313 21.104C115.313 20.8267 115.409 20.592 115.601 20.4C115.793 20.208 116.028 20.112 116.305 20.112C116.572 20.112 116.796 20.208 116.977 20.4C117.169 20.592 117.265 20.8267 117.265 21.104C117.265 21.3813 117.169 21.616 116.977 21.808C116.796 22 116.572 22.096 116.305 22.096ZM116.305 15.248C116.028 15.248 115.793 15.152 115.601 14.96C115.409 14.768 115.313 14.5333 115.313 14.256C115.313 13.9787 115.409 13.744 115.601 13.552C115.793 13.36 116.028 13.264 116.305 13.264C116.572 13.264 116.796 13.36 116.977 13.552C117.169 13.744 117.265 13.9787 117.265 14.256C117.265 14.5333 117.169 14.768 116.977 14.96C116.796 15.152 116.572 15.248 116.305 15.248Z" fill="#666666"/>
<path d="M20.5 11.125C21.4665 11.125 22.25 10.3415 22.25 9.375C22.25 8.4085 21.4665 7.625 20.5 7.625C19.5335 7.625 18.75 8.4085 18.75 9.375C18.75 10.3415 19.5335 11.125 20.5 11.125Z" stroke="#666666" stroke-width="2" stroke-linecap="round" stroke-linejoin="round"/>
<path d="M25.5076 11.4837C24.6111 10.5647 23.4789 9.91022 22.2351 9.592M18.7605 9.592C17.4961 9.91627 16.3476 10.5879 15.4451 11.531M13.7993 14.3441C13.6003 15.0024 13.4995 15.6864 13.5 16.3741C13.5 17.0199 13.5875 17.6455 13.7511 18.2396M15.4661 21.2391C16.3642 22.1697 17.5028 22.833 18.7553 23.1554M22.2535 23.1527C23.5018 22.8296 24.6365 22.1676 25.5321 21.24M27.2489 18.2387C27.416 17.6313 27.5005 17.0041 27.5 16.3741C27.5 15.7056 27.4064 15.059 27.2314 14.4465" stroke="#666666" stroke-width="2" stroke-linecap="round" stroke-linejoin="round"/>
<path d="M14.375 21.625C15.3415 21.625 16.125 20.8415 16.125 19.875C16.125 18.9085 15.3415 18.125 14.375 18.125C13.4085 18.125 12.625 18.9085 12.625 19.875C12.625 20.8415 13.4085 21.625 14.375 21.625Z" stroke="#666666" stroke-width="2" stroke-linecap="round" stroke-linejoin="round"/>
<path d="M26.625 21.625C27.5915 21.625 28.375 20.8415 28.375 19.875C28.375 18.9085 27.5915 18.125 26.625 18.125C25.6585 18.125 24.875 18.9085 24.875 19.875C24.875 20.8415 25.6585 21.625 26.625 21.625Z" stroke="#666666" stroke-width="2" stroke-linecap="round" stroke-linejoin="round"/>
</svg>
