<svg width="140" height="40" viewBox="0 0 140 40" fill="none" xmlns="http://www.w3.org/2000/svg">
<path d="M0.111719 36.284C6.62905 31.7773 11.7597 27.4267 15.5037 23.232C19.2824 19.0373 21.1717 15.016 21.1717 11.168C21.1717 8.63733 20.4957 6.57466 19.1437 4.98C17.8264 3.38533 15.6597 2.588 12.6437 2.588C9.62772 2.588 7.32239 3.50666 5.72772 5.344C4.13305 7.18133 3.23172 9.608 3.02372 12.624H0.735719C0.978386 8.81066 2.15705 5.84666 4.27172 3.732C6.38639 1.61733 9.17705 0.559999 12.6437 0.559999C15.7984 0.559999 18.3811 1.444 20.3917 3.212C22.4371 4.98 23.4597 7.61467 23.4597 11.116C23.4597 15.4493 21.4664 19.8173 17.4797 24.22C13.5277 28.6227 9.00372 32.5053 3.90772 35.868H24.6557V37.844H0.111719V36.284ZM30.652 19.332C30.652 13.3347 31.5186 8.724 33.252 5.5C34.9853 2.24133 38.1746 0.611998 42.82 0.611998C47.4306 0.611998 50.6026 2.24133 52.336 5.5C54.0693 8.724 54.936 13.3347 54.936 19.332C54.936 25.3987 54.0693 30.0787 52.336 33.372C50.6026 36.6307 47.4306 38.26 42.82 38.26C38.1746 38.26 34.9853 36.6307 33.252 33.372C31.5186 30.0787 30.652 25.3987 30.652 19.332ZM52.648 19.332C52.648 15.8653 52.388 12.936 51.868 10.544C51.3826 8.152 50.412 6.26267 48.956 4.876C47.5346 3.45467 45.4893 2.744 42.82 2.744C40.1506 2.744 38.088 3.45467 36.632 4.876C35.2106 6.26267 34.24 8.152 33.72 10.544C33.2346 12.936 32.992 15.8653 32.992 19.332C32.992 22.868 33.2346 25.8493 33.72 28.276C34.24 30.668 35.2106 32.5747 36.632 33.996C38.088 35.4173 40.1506 36.128 42.82 36.128C45.4893 36.128 47.5346 35.4173 48.956 33.996C50.412 32.5747 51.3826 30.668 51.868 28.276C52.388 25.8493 52.648 22.868 52.648 19.332ZM62.3492 38.156C61.7599 38.156 61.2746 37.9653 60.8932 37.584C60.5119 37.2027 60.3212 36.7173 60.3212 36.128C60.3212 35.5387 60.5119 35.0533 60.8932 34.672C61.2746 34.2907 61.7599 34.1 62.3492 34.1C62.9039 34.1 63.3719 34.2907 63.7532 34.672C64.1346 35.0533 64.3252 35.5387 64.3252 36.128C64.3252 36.7173 64.1346 37.2027 63.7532 37.584C63.3719 37.9653 62.9039 38.156 62.3492 38.156ZM77.4508 18.916C75.0241 18.292 73.2041 17.2173 71.9908 15.692C70.7774 14.1667 70.1708 12.3293 70.1708 10.18C70.1708 7.33733 71.2281 5.032 73.3428 3.264C75.4921 1.496 78.4561 0.611998 82.2348 0.611998C86.0134 0.611998 88.9601 1.496 91.0748 3.264C93.2241 5.032 94.2988 7.33733 94.2988 10.18C94.2988 12.2947 93.6921 14.132 92.4787 15.692C91.2654 17.2173 89.4454 18.292 87.0188 18.916C89.6188 19.4707 91.6468 20.58 93.1028 22.244C94.5934 23.908 95.3388 25.988 95.3388 28.484C95.3388 31.7773 94.1601 34.3947 91.8028 36.336C89.4801 38.2427 86.2908 39.196 82.2348 39.196C78.1788 39.196 74.9894 38.2427 72.6668 36.336C70.3441 34.3947 69.1828 31.7773 69.1828 28.484C69.1828 25.988 69.9108 23.908 71.3668 22.244C72.8574 20.5453 74.8854 19.436 77.4508 18.916ZM92.0108 10.336C92.0108 7.87467 91.1268 5.968 89.3588 4.616C87.5908 3.264 85.2161 2.588 82.2348 2.588C79.2534 2.588 76.8788 3.264 75.1108 4.616C73.3428 5.93333 72.4588 7.85733 72.4588 10.388C72.4588 12.78 73.3428 14.6693 75.1108 16.056C76.8788 17.408 79.2534 18.084 82.2348 18.084C85.2161 18.084 87.5908 17.3907 89.3588 16.004C91.1268 14.6173 92.0108 12.728 92.0108 10.336ZM82.2348 19.956C79.0801 19.956 76.4801 20.6493 74.4348 22.036C72.4241 23.4227 71.4188 25.5547 71.4188 28.432C71.4188 31.1707 72.3894 33.32 74.3308 34.88C76.3068 36.44 78.9414 37.22 82.2348 37.22C85.5281 37.22 88.1454 36.44 90.0868 34.88C92.0281 33.32 92.9988 31.1707 92.9988 28.432C92.9988 25.5893 91.9934 23.4747 89.9828 22.088C87.9721 20.6667 85.3894 19.956 82.2348 19.956ZM99.4577 3.16V1.028H107.154V38H104.814V3.16H99.4577ZM115.203 19.332C115.203 13.3347 116.069 8.724 117.803 5.5C119.536 2.24133 122.725 0.611998 127.371 0.611998C131.981 0.611998 135.153 2.24133 136.887 5.5C138.62 8.724 139.487 13.3347 139.487 19.332C139.487 25.3987 138.62 30.0787 136.887 33.372C135.153 36.6307 131.981 38.26 127.371 38.26C122.725 38.26 119.536 36.6307 117.803 33.372C116.069 30.0787 115.203 25.3987 115.203 19.332ZM137.199 19.332C137.199 15.8653 136.939 12.936 136.419 10.544C135.933 8.152 134.963 6.26267 133.507 4.876C132.085 3.45467 130.04 2.744 127.371 2.744C124.701 2.744 122.639 3.45467 121.183 4.876C119.761 6.26267 118.791 8.152 118.271 10.544C117.785 12.936 117.543 15.8653 117.543 19.332C117.543 22.868 117.785 25.8493 118.271 28.276C118.791 30.668 119.761 32.5747 121.183 33.996C122.639 35.4173 124.701 36.128 127.371 36.128C130.04 36.128 132.085 35.4173 133.507 33.996C134.963 32.5747 135.933 30.668 136.419 28.276C136.939 25.8493 137.199 22.868 137.199 19.332Z" fill="black"/>
</svg>
