<svg width="137" height="17" viewBox="0 0 137 17" fill="none" xmlns="http://www.w3.org/2000/svg">
<path d="M0.886969 12.04V11.27L9.26897 0.424H10.391V11.182H12.899V12.04H10.391V16H9.42297V12.04H0.886969ZM9.44497 1.612L2.05297 11.182H9.44497V1.612ZM14.984 16.066C14.7347 16.066 14.5293 15.9853 14.368 15.824C14.2067 15.6627 14.126 15.4573 14.126 15.208C14.126 14.9587 14.2067 14.7533 14.368 14.592C14.5293 14.4307 14.7347 14.35 14.984 14.35C15.2187 14.35 15.4167 14.4307 15.578 14.592C15.7393 14.7533 15.82 14.9587 15.82 15.208C15.82 15.4573 15.7393 15.6627 15.578 15.824C15.4167 15.9853 15.2187 16.066 14.984 16.066ZM19.5691 11.908C19.7158 12.9787 20.1044 13.8073 20.7351 14.394C21.3804 14.9807 22.2458 15.274 23.3311 15.274C24.8124 15.274 25.9344 14.724 26.6971 13.624C27.4744 12.524 27.8631 10.742 27.8631 8.278L27.8411 7.42C27.6211 8.388 27.0711 9.158 26.1911 9.73C25.3258 10.302 24.3138 10.588 23.1551 10.588C21.5711 10.588 20.3244 10.1187 19.4151 9.18C18.5058 8.24133 18.0511 6.94333 18.0511 5.286C18.0511 3.81933 18.4691 2.602 19.3051 1.634C20.1558 0.651332 21.4318 0.159999 23.1331 0.159999C25.2744 0.159999 26.7411 0.841999 27.5331 2.206C28.3398 3.57 28.7431 5.46933 28.7431 7.904C28.7431 10.588 28.3251 12.634 27.4891 14.042C26.6531 15.4353 25.2524 16.132 23.2871 16.132C21.9084 16.132 20.8231 15.7507 20.0311 14.988C19.2391 14.2107 18.7698 13.184 18.6231 11.908H19.5691ZM23.2651 9.752C24.0131 9.752 24.7244 9.598 25.3991 9.29C26.0738 8.96733 26.6164 8.498 27.0271 7.882C27.4524 7.266 27.6651 6.518 27.6651 5.638C27.6651 4.802 27.5038 4.032 27.1811 3.328C26.8584 2.624 26.3524 2.05933 25.6631 1.634C24.9884 1.20867 24.1451 0.995999 23.1331 0.995999C21.8864 0.995999 20.8818 1.38467 20.1191 2.162C19.3711 2.92467 18.9971 3.966 18.9971 5.286C18.9971 6.70867 19.3711 7.80867 20.1191 8.586C20.8671 9.36333 21.9158 9.752 23.2651 9.752ZM31.7377 8.102C31.7377 5.56467 32.1043 3.614 32.8377 2.25C33.571 0.871333 34.9203 0.181999 36.8857 0.181999C38.8363 0.181999 40.1783 0.871333 40.9117 2.25C41.645 3.614 42.0117 5.56467 42.0117 8.102C42.0117 10.6687 41.645 12.6487 40.9117 14.042C40.1783 15.4207 38.8363 16.11 36.8857 16.11C34.9203 16.11 33.571 15.4207 32.8377 14.042C32.1043 12.6487 31.7377 10.6687 31.7377 8.102ZM41.0437 8.102C41.0437 6.63533 40.9337 5.396 40.7137 4.384C40.5083 3.372 40.0977 2.57267 39.4817 1.986C38.8803 1.38467 38.015 1.084 36.8857 1.084C35.7563 1.084 34.8837 1.38467 34.2677 1.986C33.6663 2.57267 33.2557 3.372 33.0357 4.384C32.8303 5.396 32.7277 6.63533 32.7277 8.102C32.7277 9.598 32.8303 10.8593 33.0357 11.886C33.2557 12.898 33.6663 13.7047 34.2677 14.306C34.8837 14.9073 35.7563 15.208 36.8857 15.208C38.015 15.208 38.8803 14.9073 39.4817 14.306C40.0977 13.7047 40.5083 12.898 40.7137 11.886C40.9337 10.8593 41.0437 9.598 41.0437 8.102ZM44.972 8.102C44.972 5.56467 45.3387 3.614 46.072 2.25C46.8054 0.871333 48.1547 0.181999 50.12 0.181999C52.0707 0.181999 53.4127 0.871333 54.146 2.25C54.8794 3.614 55.246 5.56467 55.246 8.102C55.246 10.6687 54.8794 12.6487 54.146 14.042C53.4127 15.4207 52.0707 16.11 50.12 16.11C48.1547 16.11 46.8054 15.4207 46.072 14.042C45.3387 12.6487 44.972 10.6687 44.972 8.102ZM54.278 8.102C54.278 6.63533 54.168 5.396 53.948 4.384C53.7427 3.372 53.332 2.57267 52.716 1.986C52.1147 1.38467 51.2494 1.084 50.12 1.084C48.9907 1.084 48.118 1.38467 47.502 1.986C46.9007 2.57267 46.49 3.372 46.27 4.384C46.0647 5.396 45.962 6.63533 45.962 8.102C45.962 9.598 46.0647 10.8593 46.27 11.886C46.49 12.898 46.9007 13.7047 47.502 14.306C48.118 14.9073 48.9907 15.208 50.12 15.208C51.2494 15.208 52.1147 14.9073 52.716 14.306C53.332 13.7047 53.7427 12.898 53.948 11.886C54.168 10.8593 54.278 9.598 54.278 8.102ZM75.3934 8.168H70.2454V13.36H69.2994V8.168H64.1734V7.332H69.2994V2.14H70.2454V7.332H75.3934V8.168ZM83.3419 1.26V0.357999H86.5979V16H85.6079V1.26H83.3419ZM99.7493 1.238H91.3013V7.552C91.6973 6.99467 92.2766 6.54 93.0393 6.188C93.802 5.82133 94.6306 5.638 95.5253 5.638C96.7133 5.638 97.6813 5.88 98.4293 6.364C99.192 6.83333 99.742 7.44933 100.079 8.212C100.417 8.97467 100.585 9.80333 100.585 10.698C100.585 11.6953 100.402 12.6047 100.035 13.426C99.6686 14.2327 99.0893 14.8853 98.2973 15.384C97.52 15.868 96.5373 16.11 95.3493 16.11C93.912 16.11 92.724 15.7213 91.7853 14.944C90.8613 14.152 90.2966 13.0887 90.0913 11.754H91.0593C91.2793 12.8833 91.7706 13.7487 92.5333 14.35C93.296 14.9367 94.2346 15.23 95.3493 15.23C96.772 15.23 97.8426 14.8193 98.5613 13.998C99.28 13.162 99.6393 12.0693 99.6393 10.72C99.6393 9.4 99.2726 8.366 98.5393 7.618C97.8206 6.87 96.7866 6.496 95.4373 6.496C94.5133 6.496 93.6846 6.70133 92.9513 7.112C92.2326 7.52267 91.6753 8.08733 91.2793 8.806H90.3553V0.357999H99.7493V1.238ZM103.5 16.066C103.25 16.066 103.045 15.9853 102.884 15.824C102.722 15.6627 102.642 15.4573 102.642 15.208C102.642 14.9587 102.722 14.7533 102.884 14.592C103.045 14.4307 103.25 14.35 103.5 14.35C103.734 14.35 103.932 14.4307 104.094 14.592C104.255 14.7533 104.336 14.9587 104.336 15.208C104.336 15.4573 104.255 15.6627 104.094 15.824C103.932 15.9853 103.734 16.066 103.5 16.066ZM108.085 11.908C108.231 12.9787 108.62 13.8073 109.251 14.394C109.896 14.9807 110.761 15.274 111.847 15.274C113.328 15.274 114.45 14.724 115.213 13.624C115.99 12.524 116.379 10.742 116.379 8.278L116.357 7.42C116.137 8.388 115.587 9.158 114.707 9.73C113.841 10.302 112.829 10.588 111.671 10.588C110.087 10.588 108.84 10.1187 107.931 9.18C107.021 8.24133 106.567 6.94333 106.567 5.286C106.567 3.81933 106.985 2.602 107.821 1.634C108.671 0.651332 109.947 0.159999 111.649 0.159999C113.79 0.159999 115.257 0.841999 116.049 2.206C116.855 3.57 117.259 5.46933 117.259 7.904C117.259 10.588 116.841 12.634 116.005 14.042C115.169 15.4353 113.768 16.132 111.803 16.132C110.424 16.132 109.339 15.7507 108.547 14.988C107.755 14.2107 107.285 13.184 107.139 11.908H108.085ZM111.781 9.752C112.529 9.752 113.24 9.598 113.915 9.29C114.589 8.96733 115.132 8.498 115.543 7.882C115.968 7.266 116.181 6.518 116.181 5.638C116.181 4.802 116.019 4.032 115.697 3.328C115.374 2.624 114.868 2.05933 114.179 1.634C113.504 1.20867 112.661 0.995999 111.649 0.995999C110.402 0.995999 109.397 1.38467 108.635 2.162C107.887 2.92467 107.513 3.966 107.513 5.286C107.513 6.70867 107.887 7.80867 108.635 8.586C109.383 9.36333 110.431 9.752 111.781 9.752ZM119.285 1.26V0.357999H122.541V16H121.551V1.26H119.285ZM125.947 8.102C125.947 5.56467 126.313 3.614 127.047 2.25C127.78 0.871333 129.129 0.181999 131.095 0.181999C133.045 0.181999 134.387 0.871333 135.121 2.25C135.854 3.614 136.221 5.56467 136.221 8.102C136.221 10.6687 135.854 12.6487 135.121 14.042C134.387 15.4207 133.045 16.11 131.095 16.11C129.129 16.11 127.78 15.4207 127.047 14.042C126.313 12.6487 125.947 10.6687 125.947 8.102ZM135.253 8.102C135.253 6.63533 135.143 5.396 134.923 4.384C134.717 3.372 134.307 2.57267 133.691 1.986C133.089 1.38467 132.224 1.084 131.095 1.084C129.965 1.084 129.093 1.38467 128.477 1.986C127.875 2.57267 127.465 3.372 127.245 4.384C127.039 5.396 126.937 6.63533 126.937 8.102C126.937 9.598 127.039 10.8593 127.245 11.886C127.465 12.898 127.875 13.7047 128.477 14.306C129.093 14.9073 129.965 15.208 131.095 15.208C132.224 15.208 133.089 14.9073 133.691 14.306C134.307 13.7047 134.717 12.898 134.923 11.886C135.143 10.8593 135.253 9.598 135.253 8.102Z" fill="white"/>
</svg>
