<svg width="68" height="68" viewBox="0 0 68 68" fill="none" xmlns="http://www.w3.org/2000/svg">
<g filter="url(#filter0_d_5_192)">
<rect x="4" width="60" height="60" rx="10" fill="#8570DD" fill-opacity="0.53" shape-rendering="crispEdges"/>
</g>
<path d="M22.728 30.8C22.728 28.5813 23.1867 26.608 24.104 24.88C25.0427 23.1307 26.3227 21.7653 27.944 20.784C29.5867 19.8027 31.4213 19.312 33.448 19.312C36.008 19.312 38.1627 19.9093 39.912 21.104C41.6613 22.2987 42.9413 23.9733 43.752 26.128H42.088C41.448 24.4213 40.3813 23.0773 38.888 22.096C37.416 21.0933 35.6027 20.592 33.448 20.592C31.72 20.592 30.152 21.008 28.744 21.84C27.336 22.6507 26.2267 23.8347 25.416 25.392C24.6053 26.928 24.2 28.7307 24.2 30.8C24.2 32.848 24.6053 34.64 25.416 36.176C26.2267 37.6907 27.336 38.864 28.744 39.696C30.152 40.528 31.72 40.944 33.448 40.944C35.6027 40.944 37.416 40.4533 38.888 39.472C40.3813 38.4693 41.448 37.1147 42.088 35.408H43.752C42.9413 37.5627 41.6613 39.2373 39.912 40.432C38.1627 41.6267 36.008 42.224 33.448 42.224C31.4213 42.224 29.5867 41.744 27.944 40.784C26.3227 39.8027 25.0427 38.448 24.104 36.72C23.1867 34.9707 22.728 32.9973 22.728 30.8Z" fill="white"/>
<defs>
<filter id="filter0_d_5_192" x="0" y="0" width="68" height="68" filterUnits="userSpaceOnUse" color-interpolation-filters="sRGB">
<feFlood flood-opacity="0" result="BackgroundImageFix"/>
<feColorMatrix in="SourceAlpha" type="matrix" values="0 0 0 0 0 0 0 0 0 0 0 0 0 0 0 0 0 0 127 0" result="hardAlpha"/>
<feOffset dy="4"/>
<feGaussianBlur stdDeviation="2"/>
<feComposite in2="hardAlpha" operator="out"/>
<feColorMatrix type="matrix" values="0 0 0 0 0 0 0 0 0 0 0 0 0 0 0 0 0 0 0.25 0"/>
<feBlend mode="normal" in2="BackgroundImageFix" result="effect1_dropShadow_5_192"/>
<feBlend mode="normal" in="SourceGraphic" in2="effect1_dropShadow_5_192" result="shape"/>
</filter>
</defs>
</svg>
