<svg width="100" height="40" viewBox="0 0 100 40" fill="none" xmlns="http://www.w3.org/2000/svg">
<path d="M0 10C0 4.47715 4.47715 0 10 0H51V40H10C4.47715 40 0 35.5228 0 30V10Z" fill="#FC7F25"/>
<g clip-path="url(#clip0_5_268)">
<path d="M26 10.9078C26.2063 10.9078 26.4041 10.8258 26.55 10.68C26.6958 10.5341 26.7778 10.3363 26.7778 10.13V7.48554C26.7778 7.27926 26.6958 7.08143 26.55 6.93557C26.4041 6.78971 26.2063 6.70776 26 6.70776C25.7937 6.70776 25.5959 6.78971 25.45 6.93557C25.3042 7.08143 25.2222 7.27926 25.2222 7.48554V10.13C25.2222 10.3363 25.3042 10.5341 25.45 10.68C25.5959 10.8258 25.7937 10.9078 26 10.9078Z" fill="white"/>
<path d="M26 29.0922C25.7937 29.0922 25.5959 29.1742 25.45 29.32C25.3042 29.4659 25.2222 29.6637 25.2222 29.87V32.5144C25.2222 32.7207 25.3042 32.9186 25.45 33.0644C25.5959 33.2103 25.7937 33.2922 26 33.2922C26.2063 33.2922 26.4041 33.2103 26.55 33.0644C26.6958 32.9186 26.7778 32.7207 26.7778 32.5144V29.87C26.7778 29.6637 26.6958 29.4659 26.55 29.32C26.4041 29.1742 26.2063 29.0922 26 29.0922V29.0922Z" fill="white"/>
<path d="M18.4711 13.5756C18.6157 13.707 18.8046 13.7792 19 13.7778C19.1024 13.7784 19.2038 13.7587 19.2986 13.72C19.3934 13.6813 19.4795 13.6243 19.5522 13.5522C19.6251 13.4799 19.683 13.3939 19.7225 13.2991C19.762 13.2043 19.7823 13.1027 19.7823 13C19.7823 12.8973 19.762 12.7957 19.7225 12.7009C19.683 12.6061 19.6251 12.5201 19.5522 12.4478L17.7011 10.6044C17.5523 10.477 17.3609 10.4104 17.1652 10.418C16.9694 10.4256 16.7837 10.5067 16.6452 10.6452C16.5067 10.7837 16.4256 10.9694 16.418 11.1652C16.4104 11.3609 16.477 11.5523 16.6044 11.7011L18.4711 13.5756Z" fill="white"/>
<path d="M33.5289 26.4244C33.4563 26.3519 33.3703 26.2944 33.2755 26.2552C33.1807 26.2159 33.0792 26.1957 32.9766 26.1957C32.8741 26.1957 32.7725 26.2159 32.6778 26.2552C32.583 26.2944 32.4969 26.3519 32.4244 26.4244C32.3519 26.497 32.2944 26.5831 32.2551 26.6778C32.2159 26.7726 32.1957 26.8741 32.1957 26.9767C32.1957 27.0792 32.2159 27.1808 32.2551 27.2755C32.2944 27.3703 32.3519 27.4564 32.4244 27.5289L34.2989 29.3956C34.3709 29.469 34.4568 29.5275 34.5516 29.5676C34.6464 29.6076 34.7482 29.6285 34.8511 29.6289C35.0562 29.626 35.2519 29.5421 35.3955 29.3956C35.5404 29.2498 35.6217 29.0527 35.6217 28.8472C35.6217 28.6417 35.5404 28.4446 35.3955 28.2989L33.5289 26.4244Z" fill="white"/>
<path d="M16.9078 20C16.9078 19.7937 16.8258 19.5959 16.68 19.45C16.5341 19.3042 16.3363 19.2222 16.13 19.2222H13.4855C13.2793 19.2222 13.0814 19.3042 12.9356 19.45C12.7897 19.5959 12.7078 19.7937 12.7078 20C12.7078 20.2063 12.7897 20.4041 12.9356 20.55C13.0814 20.6958 13.2793 20.7778 13.4855 20.7778H16.13C16.3363 20.7778 16.5341 20.6958 16.68 20.55C16.8258 20.4041 16.9078 20.2063 16.9078 20Z" fill="white"/>
<path d="M38.5144 19.2222H35.87C35.6637 19.2222 35.4659 19.3042 35.32 19.45C35.1742 19.5959 35.0922 19.7937 35.0922 20C35.0922 20.2063 35.1742 20.4041 35.32 20.55C35.4659 20.6958 35.6637 20.7778 35.87 20.7778H38.5144C38.7207 20.7778 38.9186 20.6958 39.0644 20.55C39.2103 20.4041 39.2922 20.2063 39.2922 20C39.2922 19.7937 39.2103 19.5959 39.0644 19.45C38.9186 19.3042 38.7207 19.2222 38.5144 19.2222Z" fill="white"/>
<path d="M18.4711 26.4244L16.6045 28.2989C16.4952 28.4072 16.4206 28.5455 16.39 28.6962C16.3593 28.847 16.3741 29.0034 16.4324 29.1458C16.4906 29.2881 16.5898 29.41 16.7174 29.496C16.8449 29.582 16.9951 29.6282 17.1489 29.6289C17.2518 29.6285 17.3536 29.6076 17.4484 29.5676C17.5432 29.5275 17.6291 29.469 17.7011 29.3956L19.5756 27.5289C19.722 27.3824 19.8043 27.1838 19.8043 26.9767C19.8043 26.7695 19.722 26.5709 19.5756 26.4244C19.4291 26.278 19.2305 26.1957 19.0234 26.1957C18.8162 26.1957 18.6176 26.278 18.4711 26.4244V26.4244Z" fill="white"/>
<path d="M33 13.7778C33.1024 13.7784 33.2038 13.7588 33.2986 13.7201C33.3934 13.6813 33.4795 13.6243 33.5522 13.5522L35.4189 11.6778C35.5638 11.5321 35.6451 11.3349 35.6451 11.1295C35.6451 10.924 35.5638 10.7268 35.4189 10.5811C35.2732 10.4363 35.076 10.3549 34.8706 10.3549C34.6651 10.3549 34.4679 10.4363 34.3222 10.5811L32.4478 12.4478C32.3749 12.5201 32.317 12.6061 32.2775 12.7009C32.238 12.7957 32.2177 12.8973 32.2177 13C32.2177 13.1027 32.238 13.2043 32.2775 13.2991C32.317 13.3939 32.3749 13.4799 32.4478 13.5522C32.5205 13.6243 32.6066 13.6813 32.7014 13.7201C32.7962 13.7588 32.8976 13.7784 33 13.7778Z" fill="white"/>
<path d="M26.1011 12.0278C24.5387 12.0077 23.0055 12.4527 21.6966 13.3062C20.3877 14.1596 19.3621 15.383 18.7503 16.8208C18.1384 18.2586 17.9679 19.8459 18.2604 21.3808C18.5529 22.9158 19.2952 24.3291 20.3929 25.4411C21.4907 26.5532 22.8943 27.3137 24.4253 27.626C25.9564 27.9382 27.5457 27.7882 28.9913 27.195C30.4369 26.6017 31.6734 25.592 32.5437 24.2943C33.414 22.9965 33.8787 21.4692 33.8789 19.9067C33.8892 17.8314 33.0763 15.8366 31.6184 14.3597C30.1604 12.8828 28.1763 12.0442 26.1011 12.0278V12.0278ZM26.1011 26.2222C24.846 26.2423 23.6134 25.8884 22.5601 25.2055C21.5069 24.5227 20.6807 23.5418 20.1867 22.3878C19.6928 21.2338 19.5535 19.959 19.7866 18.7256C20.0197 17.4921 20.6146 16.356 21.4956 15.4618C22.3765 14.5677 23.5037 13.9559 24.7335 13.7045C25.9633 13.4531 27.2401 13.5734 28.4013 14.0501C29.5625 14.5267 30.5556 15.3382 31.254 16.3812C31.9525 17.4242 32.3247 18.6514 32.3233 19.9067C32.3316 21.5681 31.6817 23.1651 30.5157 24.3487C29.3497 25.5322 27.7624 26.2058 26.1011 26.2222V26.2222Z" fill="white"/>
</g>
<path d="M51 0H90C95.5228 0 100 4.47715 100 10V30C100 35.5228 95.5228 40 90 40H51V0Z" fill="black"/>
<path d="M75.5254 30.0647C72.5423 30.0647 69.7433 28.9085 67.644 26.8093C65.5446 24.71 64.3885 21.9108 64.3885 18.9277C64.388 16.8699 64.9578 14.8521 66.0347 13.0985C67.1115 11.3448 68.6532 9.92381 70.4886 8.99324C70.6774 8.89698 70.8904 8.85847 71.101 8.88252C71.3116 8.90657 71.5104 8.99211 71.6727 9.12847C71.835 9.26483 71.9535 9.44596 72.0134 9.64925C72.0734 9.85255 72.0721 10.069 72.0098 10.2716C71.4861 11.9633 71.4346 13.766 71.861 15.4849C72.2873 17.2037 73.1753 18.7734 74.429 20.0243C75.3287 20.9306 76.3992 21.6495 77.5786 22.1393C78.758 22.6292 80.0228 22.8802 81.2998 22.8779C82.2768 22.8787 83.2483 22.7321 84.1815 22.4433C84.3841 22.3809 84.6006 22.3796 84.8039 22.4396C85.0072 22.4995 85.1884 22.6181 85.3248 22.7803C85.4611 22.9426 85.5467 23.1415 85.5707 23.3521C85.5948 23.5627 85.5562 23.7757 85.4599 23.9646C84.5293 25.8 83.1084 27.3417 81.3547 28.4185C79.601 29.4953 77.5833 30.0652 75.5254 30.0647V30.0647ZM70.4501 10.6312C69.0268 11.4972 67.851 12.7159 67.0366 14.1693C66.2222 15.6227 65.7967 17.2617 65.8011 18.9277C65.8011 24.2897 70.1634 28.6521 75.5254 28.6521C77.1914 28.6566 78.8305 28.231 80.2839 27.4166C81.7373 26.6022 82.956 25.4265 83.822 24.0032C82.9949 24.1946 82.1488 24.291 81.2999 24.2907C79.8373 24.2935 78.3886 24.0061 77.0378 23.4453C75.687 22.8844 74.4608 22.0612 73.4303 21.0233C72.0915 19.687 71.1153 18.0317 70.5939 16.2135C70.0724 14.3953 70.023 12.4742 70.4501 10.6315V10.6312Z" fill="#FFF5F5" fill-opacity="0.8"/>
<defs>
<clipPath id="clip0_5_268">
<rect width="28" height="28" fill="white" transform="translate(12 6)"/>
</clipPath>
</defs>
</svg>
