<svg width="68" height="68" viewBox="0 0 68 68" fill="none" xmlns="http://www.w3.org/2000/svg">
<g filter="url(#filter0_d_5_225)">
<rect x="4" width="60" height="60" rx="10" fill="#4C4372"/>
</g>
<path d="M39.712 24.976C39.4773 23.44 38.912 22.256 38.016 21.424C37.12 20.5707 35.8933 20.144 34.336 20.144C32.1387 20.144 30.4533 20.9547 29.28 22.576C28.128 24.1973 27.552 26.8213 27.552 30.448L27.584 31.696C27.9253 30.224 28.7467 29.0613 30.048 28.208C31.3493 27.3333 32.864 26.896 34.592 26.896C36.896 26.896 38.6987 27.5893 40 28.976C41.3013 30.3627 41.952 32.2613 41.952 34.672C41.952 36.0373 41.696 37.2853 41.184 38.416C40.672 39.5467 39.8613 40.4533 38.752 41.136C37.6427 41.8187 36.256 42.16 34.592 42.16C31.392 42.16 29.2053 41.1573 28.032 39.152C26.8587 37.1253 26.272 34.3413 26.272 30.8C26.272 26.9813 26.9013 24.048 28.16 22C29.44 19.952 31.4987 18.928 34.336 18.928C36.32 18.928 37.8773 19.4827 39.008 20.592C40.16 21.68 40.8533 23.1413 41.088 24.976H39.712ZM34.368 28.144C33.28 28.144 32.2347 28.368 31.232 28.816C30.2293 29.264 29.408 29.9467 28.768 30.864C28.1493 31.76 27.84 32.8587 27.84 34.16C27.84 35.3547 28.0747 36.4747 28.544 37.52C29.0347 38.544 29.7813 39.376 30.784 40.016C31.7867 40.6347 33.0347 40.944 34.528 40.944C36.3627 40.944 37.824 40.3893 38.912 39.28C40 38.1707 40.544 36.6453 40.544 34.704C40.544 32.6133 40 31.0027 38.912 29.872C37.824 28.72 36.3093 28.144 34.368 28.144Z" fill="white"/>
<defs>
<filter id="filter0_d_5_225" x="0" y="0" width="68" height="68" filterUnits="userSpaceOnUse" color-interpolation-filters="sRGB">
<feFlood flood-opacity="0" result="BackgroundImageFix"/>
<feColorMatrix in="SourceAlpha" type="matrix" values="0 0 0 0 0 0 0 0 0 0 0 0 0 0 0 0 0 0 127 0" result="hardAlpha"/>
<feOffset dy="4"/>
<feGaussianBlur stdDeviation="2"/>
<feComposite in2="hardAlpha" operator="out"/>
<feColorMatrix type="matrix" values="0 0 0 0 0 0 0 0 0 0 0 0 0 0 0 0 0 0 0.25 0"/>
<feBlend mode="normal" in2="BackgroundImageFix" result="effect1_dropShadow_5_225"/>
<feBlend mode="normal" in="SourceGraphic" in2="effect1_dropShadow_5_225" result="shape"/>
</filter>
</defs>
</svg>
