<svg width="68" height="68" viewBox="0 0 68 68" fill="none" xmlns="http://www.w3.org/2000/svg">
<g filter="url(#filter0_d_5_151)">
<rect x="4" width="60" height="60" rx="10" fill="#CAC4E3"/>
</g>
<path d="M29.912 30.256C28.4187 29.872 27.2987 29.2107 26.552 28.272C25.8053 27.3333 25.432 26.2027 25.432 24.88C25.432 23.1307 26.0827 21.712 27.384 20.624C28.7067 19.536 30.5307 18.992 32.856 18.992C35.1813 18.992 36.9947 19.536 38.296 20.624C39.6187 21.712 40.28 23.1307 40.28 24.88C40.28 26.1813 39.9067 27.312 39.16 28.272C38.4133 29.2107 37.2933 29.872 35.8 30.256C37.4 30.5973 38.648 31.28 39.544 32.304C40.4613 33.328 40.92 34.608 40.92 36.144C40.92 38.1707 40.1947 39.7813 38.744 40.976C37.3147 42.1493 35.352 42.736 32.856 42.736C30.36 42.736 28.3973 42.1493 26.968 40.976C25.5387 39.7813 24.824 38.1707 24.824 36.144C24.824 34.608 25.272 33.328 26.168 32.304C27.0853 31.2587 28.3333 30.576 29.912 30.256ZM38.872 24.976C38.872 23.4613 38.328 22.288 37.24 21.456C36.152 20.624 34.6907 20.208 32.856 20.208C31.0213 20.208 29.56 20.624 28.472 21.456C27.384 22.2667 26.84 23.4507 26.84 25.008C26.84 26.48 27.384 27.6427 28.472 28.496C29.56 29.328 31.0213 29.744 32.856 29.744C34.6907 29.744 36.152 29.3173 37.24 28.464C38.328 27.6107 38.872 26.448 38.872 24.976ZM32.856 30.896C30.9147 30.896 29.3147 31.3227 28.056 32.176C26.8187 33.0293 26.2 34.3413 26.2 36.112C26.2 37.7973 26.7973 39.12 27.992 40.08C29.208 41.04 30.8293 41.52 32.856 41.52C34.8827 41.52 36.4933 41.04 37.688 40.08C38.8827 39.12 39.48 37.7973 39.48 36.112C39.48 34.3627 38.8613 33.0613 37.624 32.208C36.3867 31.3333 34.7973 30.896 32.856 30.896Z" fill="black"/>
<defs>
<filter id="filter0_d_5_151" x="0" y="0" width="68" height="68" filterUnits="userSpaceOnUse" color-interpolation-filters="sRGB">
<feFlood flood-opacity="0" result="BackgroundImageFix"/>
<feColorMatrix in="SourceAlpha" type="matrix" values="0 0 0 0 0 0 0 0 0 0 0 0 0 0 0 0 0 0 127 0" result="hardAlpha"/>
<feOffset dy="4"/>
<feGaussianBlur stdDeviation="2"/>
<feComposite in2="hardAlpha" operator="out"/>
<feColorMatrix type="matrix" values="0 0 0 0 0 0 0 0 0 0 0 0 0 0 0 0 0 0 0.25 0"/>
<feBlend mode="normal" in2="BackgroundImageFix" result="effect1_dropShadow_5_151"/>
<feBlend mode="normal" in="SourceGraphic" in2="effect1_dropShadow_5_151" result="shape"/>
</filter>
</defs>
</svg>
