<svg width="68" height="68" viewBox="0 0 68 68" fill="none" xmlns="http://www.w3.org/2000/svg">
<g filter="url(#filter0_d_5_222)">
<rect x="4" width="60" height="60" rx="10" fill="#4C4372"/>
</g>
<path d="M27.288 35.048C27.5013 36.6053 28.0667 37.8107 28.984 38.664C29.9227 39.5173 31.1813 39.944 32.76 39.944C34.9147 39.944 36.5467 39.144 37.656 37.544C38.7867 35.944 39.352 33.352 39.352 29.768L39.32 28.52C39 29.928 38.2 31.048 36.92 31.88C35.6613 32.712 34.1893 33.128 32.504 33.128C30.2 33.128 28.3867 32.4453 27.064 31.08C25.7413 29.7147 25.08 27.8267 25.08 25.416C25.08 23.2827 25.688 21.512 26.904 20.104C28.1413 18.6747 29.9973 17.96 32.472 17.96C35.5867 17.96 37.72 18.952 38.872 20.936C40.0453 22.92 40.632 25.6827 40.632 29.224C40.632 33.128 40.024 36.104 38.808 38.152C37.592 40.1787 35.5547 41.192 32.696 41.192C30.6907 41.192 29.112 40.6373 27.96 39.528C26.808 38.3973 26.1253 36.904 25.912 35.048H27.288ZM32.664 31.912C33.752 31.912 34.7867 31.688 35.768 31.24C36.7493 30.7707 37.5387 30.088 38.136 29.192C38.7547 28.296 39.064 27.208 39.064 25.928C39.064 24.712 38.8293 23.592 38.36 22.568C37.8907 21.544 37.1547 20.7227 36.152 20.104C35.1707 19.4853 33.944 19.176 32.472 19.176C30.6587 19.176 29.1973 19.7413 28.088 20.872C27 21.9813 26.456 23.496 26.456 25.416C26.456 27.4853 27 29.0853 28.088 30.216C29.176 31.3467 30.7013 31.912 32.664 31.912Z" fill="white"/>
<defs>
<filter id="filter0_d_5_222" x="0" y="0" width="68" height="68" filterUnits="userSpaceOnUse" color-interpolation-filters="sRGB">
<feFlood flood-opacity="0" result="BackgroundImageFix"/>
<feColorMatrix in="SourceAlpha" type="matrix" values="0 0 0 0 0 0 0 0 0 0 0 0 0 0 0 0 0 0 127 0" result="hardAlpha"/>
<feOffset dy="4"/>
<feGaussianBlur stdDeviation="2"/>
<feComposite in2="hardAlpha" operator="out"/>
<feColorMatrix type="matrix" values="0 0 0 0 0 0 0 0 0 0 0 0 0 0 0 0 0 0 0.25 0"/>
<feBlend mode="normal" in2="BackgroundImageFix" result="effect1_dropShadow_5_222"/>
<feBlend mode="normal" in="SourceGraphic" in2="effect1_dropShadow_5_222" result="shape"/>
</filter>
</defs>
</svg>
